<svg xmlns="http://www.w3.org/2000/svg" xmlns:xlink="http://www.w3.org/1999/xlink" width="500" zoomAndPan="magnify" viewBox="0 0 375 374.999991" height="500" preserveAspectRatio="xMidYMid meet" version="1.0"><defs><filter x="0%" y="0%" width="100%" height="100%" id="3c7d830ee3"><feColorMatrix values="0 0 0 0 1 0 0 0 0 1 0 0 0 0 1 0 0 0 1 0" color-interpolation-filters="sRGB"/></filter><mask id="ac63ceaee4"><g filter="url(#3c7d830ee3)"><rect x="-37.5" width="450" fill="#000000" y="-37.499999" height="449.999989" fill-opacity="0.0969"/></g></mask><clipPath id="d77a212cbf"><path d="M 30 0 L 31 0 L 31 346.5 L 30 346.5 Z M 30 0 " clip-rule="nonzero"/></clipPath><clipPath id="ac99e74542"><path d="M 58 0 L 60 0 L 60 346.5 L 58 346.5 Z M 58 0 " clip-rule="nonzero"/></clipPath><clipPath id="92f3befa43"><path d="M 87 0 L 89 0 L 89 346.5 L 87 346.5 Z M 87 0 " clip-rule="nonzero"/></clipPath><clipPath id="1a5d626eb2"><path d="M 116 0 L 117 0 L 117 346.5 L 116 346.5 Z M 116 0 " clip-rule="nonzero"/></clipPath><clipPath id="92e1f01156"><path d="M 144 0 L 146 0 L 146 346.5 L 144 346.5 Z M 144 0 " clip-rule="nonzero"/></clipPath><clipPath id="b29f4bcf29"><path d="M 173 0 L 175 0 L 175 346.5 L 173 346.5 Z M 173 0 " clip-rule="nonzero"/></clipPath><clipPath id="6ee912fa32"><path d="M 202 0 L 204 0 L 204 346.5 L 202 346.5 Z M 202 0 " clip-rule="nonzero"/></clipPath><clipPath id="2dd7a8c6dc"><path d="M 231 0 L 232 0 L 232 346.5 L 231 346.5 Z M 231 0 " clip-rule="nonzero"/></clipPath><clipPath id="44eb529316"><path d="M 259 0 L 261 0 L 261 346.5 L 259 346.5 Z M 259 0 " clip-rule="nonzero"/></clipPath><clipPath id="25e277393d"><path d="M 288 0 L 290 0 L 290 346.5 L 288 346.5 Z M 288 0 " clip-rule="nonzero"/></clipPath><clipPath id="466072bfae"><path d="M 317 0 L 318 0 L 318 346.5 L 317 346.5 Z M 317 0 " clip-rule="nonzero"/></clipPath><clipPath id="707891aa6f"><path d="M 345 0 L 347 0 L 347 346.5 L 345 346.5 Z M 345 0 " clip-rule="nonzero"/></clipPath><clipPath id="6053e16093"><path d="M 0.867188 0 L 348 0 L 348 2 L 0.867188 2 Z M 0.867188 0 " clip-rule="nonzero"/></clipPath><clipPath id="db2375e2e3"><path d="M 0.867188 29 L 348 29 L 348 31 L 0.867188 31 Z M 0.867188 29 " clip-rule="nonzero"/></clipPath><clipPath id="06429c96dd"><path d="M 0.867188 58 L 348 58 L 348 59 L 0.867188 59 Z M 0.867188 58 " clip-rule="nonzero"/></clipPath><clipPath id="cf7cc3dabe"><path d="M 0.867188 86 L 348 86 L 348 88 L 0.867188 88 Z M 0.867188 86 " clip-rule="nonzero"/></clipPath><clipPath id="42f4818aef"><path d="M 0.867188 115 L 348 115 L 348 117 L 0.867188 117 Z M 0.867188 115 " clip-rule="nonzero"/></clipPath><clipPath id="7efe2b5bc3"><path d="M 0.867188 144 L 348 144 L 348 146 L 0.867188 146 Z M 0.867188 144 " clip-rule="nonzero"/></clipPath><clipPath id="e00d368498"><path d="M 0.867188 172 L 348 172 L 348 174 L 0.867188 174 Z M 0.867188 172 " clip-rule="nonzero"/></clipPath><clipPath id="2e8f914983"><path d="M 0.867188 201 L 348 201 L 348 203 L 0.867188 203 Z M 0.867188 201 " clip-rule="nonzero"/></clipPath><clipPath id="bbea5a5dc9"><path d="M 0.867188 230 L 348 230 L 348 232 L 0.867188 232 Z M 0.867188 230 " clip-rule="nonzero"/></clipPath><clipPath id="fb9a6f18ba"><path d="M 0.867188 259 L 348 259 L 348 260 L 0.867188 260 Z M 0.867188 259 " clip-rule="nonzero"/></clipPath><clipPath id="2406e29fd1"><path d="M 0.867188 287 L 348 287 L 348 289 L 0.867188 289 Z M 0.867188 287 " clip-rule="nonzero"/></clipPath><clipPath id="2d0f4444e8"><path d="M 0.867188 316 L 348 316 L 348 318 L 0.867188 318 Z M 0.867188 316 " clip-rule="nonzero"/></clipPath><clipPath id="0e16f7356b"><rect x="0" width="348" y="0" height="347"/></clipPath><mask id="0f8656b547"><g filter="url(#3c7d830ee3)"><rect x="-37.5" width="450" fill="#000000" y="-37.499999" height="449.999989" fill-opacity="0.0969"/></g></mask><clipPath id="0ab554a34b"><path d="M 0 0 L 2 0 L 2 346.5 L 0 346.5 Z M 0 0 " clip-rule="nonzero"/></clipPath><clipPath id="f87af2d501"><path d="M 29 0 L 31 0 L 31 346.5 L 29 346.5 Z M 29 0 " clip-rule="nonzero"/></clipPath><clipPath id="ff3da170cb"><path d="M 0 0 L 59.320312 0 L 59.320312 2 L 0 2 Z M 0 0 " clip-rule="nonzero"/></clipPath><clipPath id="3e25de3535"><path d="M 0 29 L 59.320312 29 L 59.320312 31 L 0 31 Z M 0 29 " clip-rule="nonzero"/></clipPath><clipPath id="c951f7fd18"><path d="M 0 58 L 59.320312 58 L 59.320312 59 L 0 59 Z M 0 58 " clip-rule="nonzero"/></clipPath><clipPath id="953f14b698"><path d="M 0 86 L 59.320312 86 L 59.320312 88 L 0 88 Z M 0 86 " clip-rule="nonzero"/></clipPath><clipPath id="50b6390ba9"><path d="M 0 115 L 59.320312 115 L 59.320312 117 L 0 117 Z M 0 115 " clip-rule="nonzero"/></clipPath><clipPath id="b0fa3fbbe7"><path d="M 0 144 L 59.320312 144 L 59.320312 146 L 0 146 Z M 0 144 " clip-rule="nonzero"/></clipPath><clipPath id="4074c548f5"><path d="M 0 172 L 59.320312 172 L 59.320312 174 L 0 174 Z M 0 172 " clip-rule="nonzero"/></clipPath><clipPath id="1194f17a80"><path d="M 0 201 L 59.320312 201 L 59.320312 203 L 0 203 Z M 0 201 " clip-rule="nonzero"/></clipPath><clipPath id="ec76e72f13"><path d="M 0 230 L 59.320312 230 L 59.320312 232 L 0 232 Z M 0 230 " clip-rule="nonzero"/></clipPath><clipPath id="fce465935b"><path d="M 0 259 L 59.320312 259 L 59.320312 260 L 0 260 Z M 0 259 " clip-rule="nonzero"/></clipPath><clipPath id="88c80120ce"><path d="M 0 287 L 59.320312 287 L 59.320312 289 L 0 289 Z M 0 287 " clip-rule="nonzero"/></clipPath><clipPath id="49a5e645a1"><path d="M 0 316 L 59.320312 316 L 59.320312 318 L 0 318 Z M 0 316 " clip-rule="nonzero"/></clipPath><clipPath id="195213f4f8"><rect x="0" width="60" y="0" height="347"/></clipPath><mask id="e5292d9d91"><g filter="url(#3c7d830ee3)"><rect x="-37.5" width="450" fill="#000000" y="-37.499999" height="449.999989" fill-opacity="0.0969"/></g></mask><clipPath id="eb1414111b"><path d="M 30 1 L 31 1 L 31 61 L 30 61 Z M 30 1 " clip-rule="nonzero"/></clipPath><clipPath id="dac53faa2a"><path d="M 58 1 L 60 1 L 60 61 L 58 61 Z M 58 1 " clip-rule="nonzero"/></clipPath><clipPath id="04ddfa69d4"><path d="M 87 1 L 89 1 L 89 61 L 87 61 Z M 87 1 " clip-rule="nonzero"/></clipPath><clipPath id="3b1d7b8c19"><path d="M 116 1 L 117 1 L 117 61 L 116 61 Z M 116 1 " clip-rule="nonzero"/></clipPath><clipPath id="866350fb5f"><path d="M 144 1 L 146 1 L 146 61 L 144 61 Z M 144 1 " clip-rule="nonzero"/></clipPath><clipPath id="be9f5905f6"><path d="M 173 1 L 175 1 L 175 61 L 173 61 Z M 173 1 " clip-rule="nonzero"/></clipPath><clipPath id="16ae4a0f91"><path d="M 202 1 L 204 1 L 204 61 L 202 61 Z M 202 1 " clip-rule="nonzero"/></clipPath><clipPath id="a5599a67ed"><path d="M 231 1 L 232 1 L 232 61 L 231 61 Z M 231 1 " clip-rule="nonzero"/></clipPath><clipPath id="06914a6b92"><path d="M 259 1 L 261 1 L 261 61 L 259 61 Z M 259 1 " clip-rule="nonzero"/></clipPath><clipPath id="b4c5ea727b"><path d="M 288 1 L 290 1 L 290 61 L 288 61 Z M 288 1 " clip-rule="nonzero"/></clipPath><clipPath id="69967cc086"><path d="M 317 1 L 318 1 L 318 61 L 317 61 Z M 317 1 " clip-rule="nonzero"/></clipPath><clipPath id="5c3076075f"><path d="M 345 1 L 347 1 L 347 61 L 345 61 Z M 345 1 " clip-rule="nonzero"/></clipPath><clipPath id="cc9dc11cdf"><path d="M 0.867188 30 L 348 30 L 348 31 L 0.867188 31 Z M 0.867188 30 " clip-rule="nonzero"/></clipPath><clipPath id="47c85df209"><path d="M 0.867188 58 L 348 58 L 348 60 L 0.867188 60 Z M 0.867188 58 " clip-rule="nonzero"/></clipPath><clipPath id="09d5b95e4f"><rect x="0" width="348" y="0" height="61"/></clipPath><mask id="fe54e5c5c9"><g filter="url(#3c7d830ee3)"><rect x="-37.5" width="450" fill="#000000" y="-37.499999" height="449.999989" fill-opacity="0.0969"/></g></mask><clipPath id="7ac60855e5"><path d="M 0 1 L 2 1 L 2 61 L 0 61 Z M 0 1 " clip-rule="nonzero"/></clipPath><clipPath id="ab00729024"><path d="M 29 1 L 31 1 L 31 61 L 29 61 Z M 29 1 " clip-rule="nonzero"/></clipPath><clipPath id="2b41ca07ee"><path d="M 0 30 L 59.320312 30 L 59.320312 31 L 0 31 Z M 0 30 " clip-rule="nonzero"/></clipPath><clipPath id="d9e86bc8e1"><path d="M 0 58 L 59.320312 58 L 59.320312 60 L 0 60 Z M 0 58 " clip-rule="nonzero"/></clipPath><clipPath id="7b54929ce3"><rect x="0" width="60" y="0" height="61"/></clipPath></defs><g mask="url(#ac63ceaee4)"><g transform="matrix(1, 0, 0, 1, 27, 0)"><g clip-path="url(#0e16f7356b)"><g clip-path="url(#d77a212cbf)"><path fill="#2137ff" d="M 30.070312 -28.5 L 30.820312 -28.5 L 30.820312 346.5 L 30.070312 346.5 Z M 30.070312 -28.5 " fill-opacity="1" fill-rule="nonzero"/></g><g clip-path="url(#ac99e74542)"><path fill="#2137ff" d="M 58.78125 -28.5 L 59.53125 -28.5 L 59.53125 346.5 L 58.78125 346.5 Z M 58.78125 -28.5 " fill-opacity="1" fill-rule="nonzero"/></g><g clip-path="url(#92f3befa43)"><path fill="#2137ff" d="M 87.5 -28.5 L 88.25 -28.5 L 88.25 346.5 L 87.5 346.5 Z M 87.5 -28.5 " fill-opacity="1" fill-rule="nonzero"/></g><g clip-path="url(#1a5d626eb2)"><path fill="#2137ff" d="M 116.210938 -28.5 L 116.960938 -28.5 L 116.960938 346.5 L 116.210938 346.5 Z M 116.210938 -28.5 " fill-opacity="1" fill-rule="nonzero"/></g><g clip-path="url(#92e1f01156)"><path fill="#2137ff" d="M 144.917969 -28.5 L 145.667969 -28.5 L 145.667969 346.5 L 144.917969 346.5 Z M 144.917969 -28.5 " fill-opacity="1" fill-rule="nonzero"/></g><g clip-path="url(#b29f4bcf29)"><path fill="#2137ff" d="M 173.636719 -28.5 L 174.386719 -28.5 L 174.386719 346.5 L 173.636719 346.5 Z M 173.636719 -28.5 " fill-opacity="1" fill-rule="nonzero"/></g><g clip-path="url(#6ee912fa32)"><path fill="#2137ff" d="M 202.347656 -28.5 L 203.097656 -28.5 L 203.097656 346.5 L 202.347656 346.5 Z M 202.347656 -28.5 " fill-opacity="1" fill-rule="nonzero"/></g><g clip-path="url(#2dd7a8c6dc)"><path fill="#2137ff" d="M 231.066406 -28.5 L 231.816406 -28.5 L 231.816406 346.5 L 231.066406 346.5 Z M 231.066406 -28.5 " fill-opacity="1" fill-rule="nonzero"/></g><g clip-path="url(#44eb529316)"><path fill="#2137ff" d="M 259.773438 -28.5 L 260.523438 -28.5 L 260.523438 346.5 L 259.773438 346.5 Z M 259.773438 -28.5 " fill-opacity="1" fill-rule="nonzero"/></g><g clip-path="url(#25e277393d)"><path fill="#2137ff" d="M 288.484375 -28.5 L 289.234375 -28.5 L 289.234375 346.5 L 288.484375 346.5 Z M 288.484375 -28.5 " fill-opacity="1" fill-rule="nonzero"/></g><g clip-path="url(#466072bfae)"><path fill="#2137ff" d="M 317.203125 -28.5 L 317.953125 -28.5 L 317.953125 346.5 L 317.203125 346.5 Z M 317.203125 -28.5 " fill-opacity="1" fill-rule="nonzero"/></g><g clip-path="url(#707891aa6f)"><path fill="#2137ff" d="M 345.910156 -28.5 L 346.660156 -28.5 L 346.660156 346.5 L 345.910156 346.5 Z M 345.910156 -28.5 " fill-opacity="1" fill-rule="nonzero"/></g><g clip-path="url(#6053e16093)"><path fill="#2137ff" d="M 0.867188 0.703125 L 375.867188 0.703125 L 375.867188 1.453125 L 0.867188 1.453125 Z M 0.867188 0.703125 " fill-opacity="1" fill-rule="nonzero"/></g><g clip-path="url(#db2375e2e3)"><path fill="#2137ff" d="M 0.867188 29.414062 L 375.867188 29.414062 L 375.867188 30.164062 L 0.867188 30.164062 Z M 0.867188 29.414062 " fill-opacity="1" fill-rule="nonzero"/></g><g clip-path="url(#06429c96dd)"><path fill="#2137ff" d="M 0.867188 58.132812 L 375.867188 58.132812 L 375.867188 58.882812 L 0.867188 58.882812 Z M 0.867188 58.132812 " fill-opacity="1" fill-rule="nonzero"/></g><g clip-path="url(#cf7cc3dabe)"><path fill="#2137ff" d="M 0.867188 86.84375 L 375.867188 86.84375 L 375.867188 87.59375 L 0.867188 87.59375 Z M 0.867188 86.84375 " fill-opacity="1" fill-rule="nonzero"/></g><g clip-path="url(#42f4818aef)"><path fill="#2137ff" d="M 0.867188 115.550781 L 375.867188 115.550781 L 375.867188 116.300781 L 0.867188 116.300781 Z M 0.867188 115.550781 " fill-opacity="1" fill-rule="nonzero"/></g><g clip-path="url(#7efe2b5bc3)"><path fill="#2137ff" d="M 0.867188 144.269531 L 375.867188 144.269531 L 375.867188 145.019531 L 0.867188 145.019531 Z M 0.867188 144.269531 " fill-opacity="1" fill-rule="nonzero"/></g><g clip-path="url(#e00d368498)"><path fill="#2137ff" d="M 0.867188 172.980469 L 375.867188 172.980469 L 375.867188 173.730469 L 0.867188 173.730469 Z M 0.867188 172.980469 " fill-opacity="1" fill-rule="nonzero"/></g><g clip-path="url(#2e8f914983)"><path fill="#2137ff" d="M 0.867188 201.699219 L 375.867188 201.699219 L 375.867188 202.449219 L 0.867188 202.449219 Z M 0.867188 201.699219 " fill-opacity="1" fill-rule="nonzero"/></g><g clip-path="url(#bbea5a5dc9)"><path fill="#2137ff" d="M 0.867188 230.40625 L 375.867188 230.40625 L 375.867188 231.15625 L 0.867188 231.15625 Z M 0.867188 230.40625 " fill-opacity="1" fill-rule="nonzero"/></g><g clip-path="url(#fb9a6f18ba)"><path fill="#2137ff" d="M 0.867188 259.117188 L 375.867188 259.117188 L 375.867188 259.867188 L 0.867188 259.867188 Z M 0.867188 259.117188 " fill-opacity="1" fill-rule="nonzero"/></g><g clip-path="url(#2406e29fd1)"><path fill="#2137ff" d="M 0.867188 287.835938 L 375.867188 287.835938 L 375.867188 288.585938 L 0.867188 288.585938 Z M 0.867188 287.835938 " fill-opacity="1" fill-rule="nonzero"/></g><g clip-path="url(#2d0f4444e8)"><path fill="#2137ff" d="M 0.867188 316.546875 L 375.867188 316.546875 L 375.867188 317.296875 L 0.867188 317.296875 Z M 0.867188 316.546875 " fill-opacity="1" fill-rule="nonzero"/></g></g></g></g><g mask="url(#0f8656b547)"><g transform="matrix(1, 0, 0, 1, 0, 0)"><g clip-path="url(#195213f4f8)"><g clip-path="url(#0ab554a34b)"><path fill="#2137ff" d="M 0.652344 -28.5 L 1.402344 -28.5 L 1.402344 346.5 L 0.652344 346.5 Z M 0.652344 -28.5 " fill-opacity="1" fill-rule="nonzero"/></g><g clip-path="url(#f87af2d501)"><path fill="#2137ff" d="M 29.363281 -28.5 L 30.113281 -28.5 L 30.113281 346.5 L 29.363281 346.5 Z M 29.363281 -28.5 " fill-opacity="1" fill-rule="nonzero"/></g><g clip-path="url(#ff3da170cb)"><path fill="#2137ff" d="M -315.679688 0.703125 L 59.320312 0.703125 L 59.320312 1.453125 L -315.679688 1.453125 Z M -315.679688 0.703125 " fill-opacity="1" fill-rule="nonzero"/></g><g clip-path="url(#3e25de3535)"><path fill="#2137ff" d="M -315.679688 29.414062 L 59.320312 29.414062 L 59.320312 30.164062 L -315.679688 30.164062 Z M -315.679688 29.414062 " fill-opacity="1" fill-rule="nonzero"/></g><g clip-path="url(#c951f7fd18)"><path fill="#2137ff" d="M -315.679688 58.132812 L 59.320312 58.132812 L 59.320312 58.882812 L -315.679688 58.882812 Z M -315.679688 58.132812 " fill-opacity="1" fill-rule="nonzero"/></g><g clip-path="url(#953f14b698)"><path fill="#2137ff" d="M -315.679688 86.84375 L 59.320312 86.84375 L 59.320312 87.59375 L -315.679688 87.59375 Z M -315.679688 86.84375 " fill-opacity="1" fill-rule="nonzero"/></g><g clip-path="url(#50b6390ba9)"><path fill="#2137ff" d="M -315.679688 115.550781 L 59.320312 115.550781 L 59.320312 116.300781 L -315.679688 116.300781 Z M -315.679688 115.550781 " fill-opacity="1" fill-rule="nonzero"/></g><g clip-path="url(#b0fa3fbbe7)"><path fill="#2137ff" d="M -315.679688 144.269531 L 59.320312 144.269531 L 59.320312 145.019531 L -315.679688 145.019531 Z M -315.679688 144.269531 " fill-opacity="1" fill-rule="nonzero"/></g><g clip-path="url(#4074c548f5)"><path fill="#2137ff" d="M -315.679688 172.980469 L 59.320312 172.980469 L 59.320312 173.730469 L -315.679688 173.730469 Z M -315.679688 172.980469 " fill-opacity="1" fill-rule="nonzero"/></g><g clip-path="url(#1194f17a80)"><path fill="#2137ff" d="M -315.679688 201.699219 L 59.320312 201.699219 L 59.320312 202.449219 L -315.679688 202.449219 Z M -315.679688 201.699219 " fill-opacity="1" fill-rule="nonzero"/></g><g clip-path="url(#ec76e72f13)"><path fill="#2137ff" d="M -315.679688 230.40625 L 59.320312 230.40625 L 59.320312 231.15625 L -315.679688 231.15625 Z M -315.679688 230.40625 " fill-opacity="1" fill-rule="nonzero"/></g><g clip-path="url(#fce465935b)"><path fill="#2137ff" d="M -315.679688 259.117188 L 59.320312 259.117188 L 59.320312 259.867188 L -315.679688 259.867188 Z M -315.679688 259.117188 " fill-opacity="1" fill-rule="nonzero"/></g><g clip-path="url(#88c80120ce)"><path fill="#2137ff" d="M -315.679688 287.835938 L 59.320312 287.835938 L 59.320312 288.585938 L -315.679688 288.585938 Z M -315.679688 287.835938 " fill-opacity="1" fill-rule="nonzero"/></g><g clip-path="url(#49a5e645a1)"><path fill="#2137ff" d="M -315.679688 316.546875 L 59.320312 316.546875 L 59.320312 317.296875 L -315.679688 317.296875 Z M -315.679688 316.546875 " fill-opacity="1" fill-rule="nonzero"/></g></g></g></g><g mask="url(#e5292d9d91)"><g transform="matrix(1, 0, 0, 1, 27, 314)"><g clip-path="url(#09d5b95e4f)"><g clip-path="url(#eb1414111b)"><path fill="#2137ff" d="M 30.070312 1 L 30.820312 1 L 30.820312 376 L 30.070312 376 Z M 30.070312 1 " fill-opacity="1" fill-rule="nonzero"/></g><g clip-path="url(#dac53faa2a)"><path fill="#2137ff" d="M 58.78125 1 L 59.53125 1 L 59.53125 376 L 58.78125 376 Z M 58.78125 1 " fill-opacity="1" fill-rule="nonzero"/></g><g clip-path="url(#04ddfa69d4)"><path fill="#2137ff" d="M 87.5 1 L 88.25 1 L 88.25 376 L 87.5 376 Z M 87.5 1 " fill-opacity="1" fill-rule="nonzero"/></g><g clip-path="url(#3b1d7b8c19)"><path fill="#2137ff" d="M 116.210938 1 L 116.960938 1 L 116.960938 376 L 116.210938 376 Z M 116.210938 1 " fill-opacity="1" fill-rule="nonzero"/></g><g clip-path="url(#866350fb5f)"><path fill="#2137ff" d="M 144.917969 1 L 145.667969 1 L 145.667969 376 L 144.917969 376 Z M 144.917969 1 " fill-opacity="1" fill-rule="nonzero"/></g><g clip-path="url(#be9f5905f6)"><path fill="#2137ff" d="M 173.636719 1 L 174.386719 1 L 174.386719 376 L 173.636719 376 Z M 173.636719 1 " fill-opacity="1" fill-rule="nonzero"/></g><g clip-path="url(#16ae4a0f91)"><path fill="#2137ff" d="M 202.347656 1 L 203.097656 1 L 203.097656 376 L 202.347656 376 Z M 202.347656 1 " fill-opacity="1" fill-rule="nonzero"/></g><g clip-path="url(#a5599a67ed)"><path fill="#2137ff" d="M 231.066406 1 L 231.816406 1 L 231.816406 376 L 231.066406 376 Z M 231.066406 1 " fill-opacity="1" fill-rule="nonzero"/></g><g clip-path="url(#06914a6b92)"><path fill="#2137ff" d="M 259.773438 1 L 260.523438 1 L 260.523438 376 L 259.773438 376 Z M 259.773438 1 " fill-opacity="1" fill-rule="nonzero"/></g><g clip-path="url(#b4c5ea727b)"><path fill="#2137ff" d="M 288.484375 1 L 289.234375 1 L 289.234375 376 L 288.484375 376 Z M 288.484375 1 " fill-opacity="1" fill-rule="nonzero"/></g><g clip-path="url(#69967cc086)"><path fill="#2137ff" d="M 317.203125 1 L 317.953125 1 L 317.953125 376 L 317.203125 376 Z M 317.203125 1 " fill-opacity="1" fill-rule="nonzero"/></g><g clip-path="url(#5c3076075f)"><path fill="#2137ff" d="M 345.910156 1 L 346.660156 1 L 346.660156 376 L 345.910156 376 Z M 345.910156 1 " fill-opacity="1" fill-rule="nonzero"/></g><g clip-path="url(#cc9dc11cdf)"><path fill="#2137ff" d="M 0.867188 30.203125 L 375.867188 30.203125 L 375.867188 30.953125 L 0.867188 30.953125 Z M 0.867188 30.203125 " fill-opacity="1" fill-rule="nonzero"/></g><g clip-path="url(#47c85df209)"><path fill="#2137ff" d="M 0.867188 58.914062 L 375.867188 58.914062 L 375.867188 59.664062 L 0.867188 59.664062 Z M 0.867188 58.914062 " fill-opacity="1" fill-rule="nonzero"/></g></g></g></g><g mask="url(#fe54e5c5c9)"><g transform="matrix(1, 0, 0, 1, 0, 314)"><g clip-path="url(#7b54929ce3)"><g clip-path="url(#7ac60855e5)"><path fill="#2137ff" d="M 0.652344 1 L 1.402344 1 L 1.402344 376 L 0.652344 376 Z M 0.652344 1 " fill-opacity="1" fill-rule="nonzero"/></g><g clip-path="url(#ab00729024)"><path fill="#2137ff" d="M 29.363281 1 L 30.113281 1 L 30.113281 376 L 29.363281 376 Z M 29.363281 1 " fill-opacity="1" fill-rule="nonzero"/></g><g clip-path="url(#2b41ca07ee)"><path fill="#2137ff" d="M -315.679688 30.203125 L 59.320312 30.203125 L 59.320312 30.953125 L -315.679688 30.953125 Z M -315.679688 30.203125 " fill-opacity="1" fill-rule="nonzero"/></g><g clip-path="url(#d9e86bc8e1)"><path fill="#2137ff" d="M -315.679688 58.914062 L 59.320312 58.914062 L 59.320312 59.664062 L -315.679688 59.664062 Z M -315.679688 58.914062 " fill-opacity="1" fill-rule="nonzero"/></g></g></g></g></svg>