<svg xmlns="http://www.w3.org/2000/svg" xmlns:xlink="http://www.w3.org/1999/xlink" width="500" zoomAndPan="magnify" viewBox="0 0 375 374.999991" height="500" preserveAspectRatio="xMidYMid meet" version="1.0"><defs><g/><clipPath id="984359a5c1"><path d="M 190 175 L 345 175 L 345 223.417969 L 190 223.417969 Z M 190 175 " clip-rule="nonzero"/></clipPath><clipPath id="f42f425b0a"><path d="M 30.054688 175 L 185 175 L 185 223.417969 L 30.054688 223.417969 Z M 30.054688 175 " clip-rule="nonzero"/></clipPath><clipPath id="1152bd4f5c"><path d="M 106 144.667969 L 267 144.667969 L 267 149 L 106 149 Z M 106 144.667969 " clip-rule="nonzero"/></clipPath><clipPath id="c6bb8d0f60"><path d="M 187 144.667969 L 226 144.667969 L 226 149 L 187 149 Z M 187 144.667969 " clip-rule="nonzero"/></clipPath><clipPath id="36d3ef32b7"><path d="M 181 179 L 194 179 L 194 181.699219 L 181 181.699219 Z M 181 179 " clip-rule="nonzero"/></clipPath><clipPath id="5a5e373b79"><path d="M 229 111 L 255.300781 111 L 255.300781 118 L 229 118 Z M 229 111 " clip-rule="nonzero"/></clipPath><clipPath id="caea0e9a38"><path d="M 184 33.199219 L 188 33.199219 L 188 59 L 184 59 Z M 184 33.199219 " clip-rule="nonzero"/></clipPath><clipPath id="44b55f033b"><path d="M 119.550781 86 L 146 86 L 146 94 L 119.550781 94 Z M 119.550781 86 " clip-rule="nonzero"/></clipPath></defs><g clip-path="url(#984359a5c1)"><path fill="#035184" d="M 203.390625 206.398438 C 256.722656 180.171875 305.109375 175.59375 329.117188 175.183594 C 337.816406 175.035156 344.898438 182.136719 344.730469 190.832031 C 344.566406 198.972656 338.078125 205.582031 329.9375 205.871094 C 259.949219 208.347656 191.050781 223.769531 191.050781 223.769531 C 190.789062 215.835938 191.050781 213.941406 191.050781 213.941406 C 192.253906 210.546875 203.390625 206.398438 203.390625 206.398438 " fill-opacity="1" fill-rule="nonzero"/></g><path fill="#035184" d="M 198.070312 189.390625 C 229.976562 162.796875 262.082031 151.722656 278.324219 147.488281 C 284.207031 145.957031 290.183594 149.613281 291.503906 155.546875 C 292.734375 161.105469 289.414062 166.660156 283.933594 168.195312 C 236.808594 181.402344 192.550781 203.222656 192.550781 203.222656 C 191.066406 197.875 190.933594 196.546875 190.933594 196.546875 C 191.191406 194.042969 198.070312 189.390625 198.070312 189.390625 " fill-opacity="1" fill-rule="nonzero"/><g clip-path="url(#f42f425b0a)"><path fill="#fca203" d="M 171.601562 206.398438 C 118.269531 180.171875 69.882812 175.59375 45.875 175.183594 C 37.175781 175.035156 30.09375 182.136719 30.265625 190.832031 C 30.425781 198.972656 36.914062 205.582031 45.054688 205.871094 C 115.042969 208.347656 183.945312 223.769531 183.945312 223.769531 C 184.203125 215.835938 183.945312 213.941406 183.945312 213.941406 C 182.742188 210.546875 171.601562 206.398438 171.601562 206.398438 " fill-opacity="1" fill-rule="nonzero"/></g><path fill="#fca203" d="M 176.917969 189.390625 C 145.015625 162.796875 112.90625 151.722656 96.667969 147.488281 C 90.785156 145.957031 84.804688 149.613281 83.492188 155.546875 C 82.257812 161.105469 85.578125 166.660156 91.058594 168.195312 C 138.183594 181.402344 182.441406 203.222656 182.441406 203.222656 C 183.925781 197.875 184.058594 196.546875 184.058594 196.546875 C 183.800781 194.042969 176.917969 189.390625 176.917969 189.390625 " fill-opacity="1" fill-rule="nonzero"/><g clip-path="url(#1152bd4f5c)"><path fill="#ffffff" d="M 263.832031 101.152344 L 225.132812 120.996094 L 225.222656 143.269531 L 224.96875 143.304688 L 224.964844 143.8125 L 221.414062 143.789062 L 187.644531 148.410156 L 149.996094 143.8125 L 149.992188 143.269531 L 149.742188 143.269531 L 149.835938 120.488281 L 111.355469 100.042969 C 111.269531 100 111.1875 99.949219 111.109375 99.902344 L 111.027344 111.144531 C 112.339844 111.472656 113.277344 112.316406 113.269531 113.296875 L 113.105469 136.105469 C 113.097656 137.355469 111.554688 138.363281 109.664062 138.347656 C 107.769531 138.335938 106.242188 137.304688 106.253906 136.054688 L 106.417969 113.25 C 106.425781 112.265625 107.375 111.433594 108.695312 111.132812 L 108.800781 96.484375 C 108.5 94.585938 109.292969 92.527344 111.199219 91.425781 L 130.359375 80.355469 L 148.519531 69.867188 L 160.84375 62.742188 L 179.003906 52.25 L 185.476562 48.511719 C 186.25 48.0625 187.113281 47.847656 187.976562 47.851562 C 188.839844 47.855469 189.699219 48.089844 190.464844 48.546875 L 191.328125 49.0625 L 209.488281 59.910156 L 221.8125 67.273438 L 239.972656 78.117188 L 264.109375 92.539062 C 267.429688 94.519531 267.277344 99.386719 263.832031 101.152344 " fill-opacity="1" fill-rule="nonzero"/></g><g clip-path="url(#c6bb8d0f60)"><path fill="#ffffff" d="M 187.644531 148.410156 L 188.035156 95.132812 L 225.203125 108.675781 L 224.949219 143.855469 L 187.644531 148.410156 " fill-opacity="1" fill-rule="nonzero"/></g><path fill="#fbda2e" d="M 224.007812 120.363281 C 222.484375 124.039062 220.007812 127.382812 217.769531 130.722656 C 214.054688 136.308594 210.195312 141.800781 206.433594 147.386719 C 205.765625 148.339844 205.144531 148.769531 203.957031 148.769531 L 187.285156 148.769531 C 181.757812 148.769531 176.28125 148.722656 170.757812 148.816406 C 169.46875 148.816406 168.753906 148.339844 167.992188 147.242188 C 164.039062 141.371094 159.992188 135.5 155.800781 129.769531 C 145.988281 116.402344 144.320312 99.789062 152.800781 84.941406 C 160.707031 71 176.664062 63.265625 192.523438 65.460938 C 193.515625 65.585938 194.5 65.761719 195.476562 65.988281 C 219.863281 71.046875 233.914062 97.019531 224.007812 120.363281 Z M 224.007812 120.363281 " fill-opacity="1" fill-rule="nonzero"/><path fill="#231f20" d="M 183.617188 148.769531 C 183.09375 144.1875 182.710938 139.554688 182.140625 134.972656 C 181.570312 130.390625 180.519531 124.613281 179.378906 119.457031 C 178.710938 116.355469 178.234375 112.34375 175.28125 110.480469 C 174.671875 110.101562 174.003906 109.886719 173.289062 109.84375 C 172.570312 109.804688 171.882812 109.9375 171.234375 110.242188 C 170.894531 110.445312 170.597656 110.695312 170.34375 110.996094 C 170.089844 111.296875 169.890625 111.632812 169.75 112 C 169.605469 112.367188 169.527344 112.75 169.511719 113.144531 C 169.496094 113.539062 169.546875 113.921875 169.660156 114.300781 C 170.566406 117.738281 174.898438 118.742188 177.949219 118.835938 C 179.574219 118.898438 181.167969 118.703125 182.730469 118.253906 C 184.292969 117.804688 185.746094 117.125 187.09375 116.210938 C 189.808594 114.347656 192.191406 111.578125 192.667969 108.191406 C 192.808594 107.371094 192.789062 106.558594 192.609375 105.746094 C 192.425781 104.933594 192.097656 104.191406 191.617188 103.511719 C 191.117188 102.804688 190.480469 102.265625 189.699219 101.890625 C 188.917969 101.519531 188.097656 101.359375 187.238281 101.410156 C 186.386719 101.488281 185.609375 101.769531 184.90625 102.253906 C 184.203125 102.738281 183.660156 103.363281 183.285156 104.132812 C 182.9375 104.941406 182.742188 105.785156 182.699219 106.664062 C 182.660156 107.542969 182.773438 108.402344 183.046875 109.242188 C 183.902344 112.34375 186.140625 115.015625 188.761719 116.832031 C 190.015625 117.710938 191.375 118.363281 192.839844 118.796875 C 194.308594 119.230469 195.804688 119.417969 197.335938 119.363281 C 199.714844 119.265625 202.667969 118.550781 204.144531 116.496094 C 205.621094 114.445312 205.097656 109.621094 201.765625 109.910156 C 200.144531 110.050781 198.382812 111.4375 197.667969 112.917969 C 196.953125 114.398438 196.238281 116.976562 195.808594 119.027344 C 195.191406 121.796875 194.570312 124.613281 193.90625 127.382812 C 193.238281 130.152344 192.953125 132.347656 192.523438 134.78125 C 191.953125 138.410156 191.429688 142.085938 191 145.714844 C 190.855469 146.667969 190.761719 147.625 190.617188 148.578125 C 190.617188 148.828125 190.707031 149.042969 190.882812 149.21875 C 191.058594 149.398438 191.273438 149.488281 191.523438 149.488281 C 191.773438 149.488281 191.988281 149.398438 192.164062 149.21875 C 192.339844 149.042969 192.429688 148.828125 192.429688 148.578125 C 193.09375 142.992188 193.859375 137.40625 194.859375 131.820312 C 195.621094 127.574219 196.621094 123.371094 197.574219 119.171875 C 197.859375 118.023438 198.144531 116.832031 198.523438 115.636719 C 198.707031 114.957031 198.960938 114.304688 199.289062 113.679688 L 199.429688 113.394531 C 199.429688 113.347656 199.476562 113.347656 199.476562 113.296875 C 199.476562 113.25 199.335938 113.488281 199.476562 113.347656 L 199.90625 112.867188 C 200.429688 112.34375 201.429688 111.4375 202.289062 111.722656 C 203.144531 112.007812 203.335938 113.679688 203.144531 114.492188 C 202.957031 115.304688 202.050781 116.257812 201.097656 116.6875 C 199.097656 117.691406 196.667969 117.785156 194.523438 117.355469 C 191.871094 116.816406 189.601562 115.574219 187.714844 113.632812 C 185.855469 111.722656 184.046875 108.8125 184.523438 106.042969 C 184.5625 105.6875 184.660156 105.351562 184.808594 105.027344 C 184.960938 104.703125 185.160156 104.414062 185.402344 104.15625 C 185.648438 103.898438 185.925781 103.683594 186.242188 103.519531 C 186.554688 103.351562 186.886719 103.238281 187.238281 103.175781 C 187.929688 103.144531 188.574219 103.308594 189.171875 103.664062 C 189.769531 104.019531 190.21875 104.507812 190.523438 105.136719 C 191.808594 107.664062 190.238281 110.816406 188.476562 112.726562 C 187.472656 113.773438 186.339844 114.644531 185.070312 115.347656 C 183.804688 116.046875 182.460938 116.542969 181.042969 116.832031 C 178.425781 117.355469 175.28125 117.164062 172.945312 115.734375 C 171.898438 115.113281 170.757812 113.632812 171.519531 112.390625 C 172.28125 111.148438 173.234375 111.484375 174.089844 111.867188 C 174.949219 112.25 176.042969 113.777344 176.472656 114.96875 C 176.925781 116.460938 177.292969 117.972656 177.566406 119.503906 C 178.617188 124.328125 179.617188 129.386719 180.234375 134.160156 C 180.664062 137.121094 180.902344 140.464844 181.234375 143.519531 C 181.425781 145.285156 181.617188 147.003906 181.855469 148.769531 C 181.824219 148.90625 181.820312 149.039062 181.851562 149.175781 C 181.882812 149.308594 181.941406 149.433594 182.027344 149.539062 C 182.113281 149.648438 182.21875 149.734375 182.339844 149.792969 C 182.464844 149.855469 182.597656 149.882812 182.734375 149.882812 C 182.875 149.882812 183.003906 149.855469 183.128906 149.792969 C 183.253906 149.734375 183.359375 149.648438 183.445312 149.539062 C 183.53125 149.433594 183.589844 149.308594 183.617188 149.175781 C 183.648438 149.039062 183.648438 148.90625 183.617188 148.769531 Z M 183.617188 148.769531 " fill-opacity="1" fill-rule="nonzero"/><path fill="#fcd00d" d="M 224.007812 120.363281 C 222.484375 124.039062 220.007812 127.382812 217.769531 130.722656 C 214.054688 136.308594 210.195312 141.800781 206.433594 147.386719 C 205.765625 148.339844 205.144531 148.769531 203.957031 148.769531 L 197.761719 148.769531 C 209.003906 138.792969 216.054688 125.136719 216.71875 110.816406 C 217.484375 93.820312 209.195312 77.207031 195.476562 65.988281 C 219.863281 71.046875 233.914062 97.019531 224.007812 120.363281 Z M 224.007812 120.363281 " fill-opacity="1" fill-rule="nonzero"/><path fill="#666767" d="M 168.46875 147.71875 L 206.097656 147.71875 C 206.097656 148.371094 206.035156 149.019531 205.910156 149.65625 C 205.78125 150.296875 205.59375 150.917969 205.34375 151.519531 C 205.09375 152.121094 204.789062 152.695312 204.429688 153.238281 C 204.066406 153.777344 203.65625 154.28125 203.195312 154.742188 C 202.738281 155.203125 202.238281 155.613281 201.695312 155.976562 C 201.15625 156.339844 200.582031 156.644531 199.984375 156.894531 C 199.382812 157.144531 198.761719 157.332031 198.125 157.460938 C 197.484375 157.585938 196.84375 157.648438 196.191406 157.648438 L 178.378906 157.648438 C 177.726562 157.648438 177.082031 157.585938 176.445312 157.460938 C 175.804688 157.332031 175.1875 157.144531 174.585938 156.894531 C 173.984375 156.644531 173.414062 156.339844 172.871094 155.976562 C 172.332031 155.613281 171.832031 155.203125 171.371094 154.742188 C 170.910156 154.28125 170.5 153.777344 170.140625 153.238281 C 169.777344 152.695312 169.472656 152.121094 169.222656 151.519531 C 168.976562 150.917969 168.789062 150.296875 168.660156 149.65625 C 168.535156 149.019531 168.46875 148.371094 168.46875 147.71875 Z M 168.46875 147.71875 " fill-opacity="1" fill-rule="nonzero"/><path stroke-linecap="round" transform="matrix(0.476316, 0, 0, 0.477412, 119.933272, 33.236533)" fill="none" stroke-linejoin="round" d="M 114.502578 264.802147 L 168.300922 264.303037 " stroke="#666767" stroke-width="16" stroke-opacity="1" stroke-miterlimit="4"/><path stroke-linecap="round" transform="matrix(0.476316, 0, 0, 0.477412, 119.933272, 33.236533)" fill="none" stroke-linejoin="round" d="M 114.797813 287.900319 L 168.497745 287.303023 " stroke="#666767" stroke-width="16" stroke-opacity="1" stroke-miterlimit="4"/><path stroke-linecap="round" transform="matrix(0.476316, 0, 0, 0.477412, 119.933272, 33.236533)" fill="none" stroke-linejoin="round" d="M 114.60099 276.298049 L 168.399334 275.798939 " stroke="#666767" stroke-width="16" stroke-opacity="1" stroke-miterlimit="4"/><path fill="#666767" d="M 195.761719 179.039062 L 179.089844 179.039062 C 178.730469 179.039062 178.375 179.003906 178.023438 178.933594 C 177.671875 178.863281 177.328125 178.757812 176.996094 178.621094 C 176.664062 178.480469 176.347656 178.3125 176.046875 178.113281 C 175.75 177.914062 175.472656 177.683594 175.21875 177.429688 C 174.964844 177.175781 174.738281 176.898438 174.539062 176.597656 C 174.335938 176.296875 174.167969 175.980469 174.03125 175.648438 C 173.894531 175.316406 173.789062 174.972656 173.71875 174.617188 C 173.648438 174.265625 173.613281 173.910156 173.613281 173.546875 L 173.613281 172.449219 L 201.242188 172.449219 L 201.242188 173.546875 C 201.242188 173.910156 201.207031 174.265625 201.136719 174.617188 C 201.066406 174.972656 200.960938 175.316406 200.824219 175.648438 C 200.6875 175.980469 200.515625 176.296875 200.316406 176.597656 C 200.117188 176.898438 199.890625 177.175781 199.636719 177.429688 C 199.382812 177.683594 199.105469 177.914062 198.804688 178.113281 C 198.507812 178.3125 198.191406 178.480469 197.859375 178.621094 C 197.527344 178.757812 197.183594 178.863281 196.832031 178.933594 C 196.480469 179.003906 196.121094 179.039062 195.761719 179.039062 Z M 195.761719 179.039062 " fill-opacity="1" fill-rule="nonzero"/><g clip-path="url(#36d3ef32b7)"><path fill="#000000" d="M 181.234375 179.039062 L 193.667969 179.039062 C 193.667969 179.378906 193.601562 179.707031 193.472656 180.023438 C 193.339844 180.339844 193.15625 180.621094 192.914062 180.859375 C 192.671875 181.101562 192.394531 181.289062 192.078125 181.417969 C 191.765625 181.550781 191.4375 181.617188 191.09375 181.617188 L 183.757812 181.617188 C 183.417969 181.617188 183.089844 181.550781 182.773438 181.417969 C 182.460938 181.289062 182.183594 181.101562 181.941406 180.859375 C 181.699219 180.621094 181.515625 180.339844 181.382812 180.023438 C 181.253906 179.707031 181.1875 179.378906 181.1875 179.039062 Z M 181.234375 179.039062 " fill-opacity="1" fill-rule="nonzero"/></g><path fill="#fcd00d" d="M 239.535156 144.425781 L 221.863281 128.574219 L 241.726562 141.511719 C 241.921875 141.660156 242.078125 141.835938 242.203125 142.042969 C 242.324219 142.253906 242.402344 142.476562 242.4375 142.71875 C 242.472656 142.957031 242.457031 143.195312 242.398438 143.429688 C 242.335938 143.664062 242.234375 143.878906 242.089844 144.070312 C 241.941406 144.265625 241.765625 144.421875 241.558594 144.546875 C 241.347656 144.667969 241.125 144.746094 240.886719 144.78125 C 240.644531 144.8125 240.410156 144.796875 240.175781 144.738281 C 239.941406 144.675781 239.730469 144.570312 239.535156 144.425781 Z M 239.535156 144.425781 " fill-opacity="1" fill-rule="nonzero"/><g clip-path="url(#5a5e373b79)"><path fill="#fcd00d" d="M 252.636719 117.546875 L 229.820312 111.007812 L 253.347656 114.015625 C 253.605469 114.035156 253.847656 114.109375 254.074219 114.234375 C 254.296875 114.363281 254.488281 114.527344 254.644531 114.734375 C 254.796875 114.941406 254.902344 115.171875 254.960938 115.425781 C 255.015625 115.675781 255.019531 115.929688 254.96875 116.183594 C 254.917969 116.4375 254.816406 116.667969 254.667969 116.878906 C 254.515625 117.089844 254.328125 117.257812 254.105469 117.390625 C 253.882812 117.519531 253.644531 117.597656 253.386719 117.625 C 253.132812 117.652344 252.878906 117.628906 252.636719 117.546875 Z M 252.636719 117.546875 " fill-opacity="1" fill-rule="nonzero"/></g><path fill="#fcd00d" d="M 252.777344 87.710938 L 229.390625 91.71875 L 251.921875 84.175781 C 254.398438 83.460938 255.300781 87.136719 252.777344 87.710938 Z M 252.777344 87.710938 " fill-opacity="1" fill-rule="nonzero"/><path fill="#fcd00d" d="M 240.011719 60.734375 L 220.675781 74.484375 L 237.679688 57.917969 C 237.863281 57.761719 238.074219 57.648438 238.304688 57.578125 C 238.535156 57.507812 238.773438 57.480469 239.015625 57.503906 C 239.253906 57.527344 239.484375 57.59375 239.695312 57.707031 C 239.910156 57.820312 240.097656 57.96875 240.25 58.15625 C 240.40625 58.34375 240.519531 58.554688 240.589844 58.785156 C 240.660156 59.015625 240.6875 59.253906 240.664062 59.496094 C 240.640625 59.738281 240.574219 59.964844 240.460938 60.179688 C 240.347656 60.394531 240.199219 60.582031 240.011719 60.734375 Z M 240.011719 60.734375 " fill-opacity="1" fill-rule="nonzero"/><path fill="#fcd00d" d="M 216.816406 41.972656 L 205.382812 62.789062 L 213.53125 40.445312 C 214.53125 38.058594 217.960938 39.632812 216.816406 41.972656 Z M 216.816406 41.972656 " fill-opacity="1" fill-rule="nonzero"/><g clip-path="url(#caea0e9a38)"><path fill="#fcd00d" d="M 187.808594 35.144531 L 186.472656 58.921875 L 184.1875 35.242188 C 184.183594 35 184.222656 34.769531 184.308594 34.542969 C 184.394531 34.320312 184.519531 34.121094 184.683594 33.945312 C 184.851562 33.769531 185.042969 33.632812 185.261719 33.535156 C 185.480469 33.4375 185.710938 33.386719 185.949219 33.378906 C 186.191406 33.375 186.421875 33.414062 186.648438 33.5 C 186.871094 33.585938 187.070312 33.710938 187.246094 33.878906 C 187.417969 34.042969 187.554688 34.234375 187.652344 34.457031 C 187.75 34.675781 187.800781 34.90625 187.808594 35.144531 Z M 187.808594 35.144531 " fill-opacity="1" fill-rule="nonzero"/></g><path fill="#fcd00d" d="M 158.707031 41.640625 L 167.804688 63.601562 L 155.464844 43.308594 C 154.226562 41.019531 157.609375 39.300781 158.707031 41.640625 Z M 158.707031 41.640625 " fill-opacity="1" fill-rule="nonzero"/><path fill="#fcd00d" d="M 135.316406 60.164062 L 152.988281 75.964844 L 133.128906 63.027344 C 132.910156 62.890625 132.726562 62.71875 132.582031 62.507812 C 132.4375 62.296875 132.34375 62.0625 132.296875 61.8125 C 132.25 61.558594 132.257812 61.308594 132.316406 61.058594 C 132.375 60.808594 132.484375 60.582031 132.640625 60.378906 C 132.796875 60.175781 132.984375 60.011719 133.210938 59.890625 C 133.4375 59.765625 133.675781 59.695312 133.929688 59.675781 C 134.1875 59.652344 134.433594 59.6875 134.675781 59.769531 C 134.917969 59.855469 135.132812 59.988281 135.316406 60.164062 Z M 135.316406 60.164062 " fill-opacity="1" fill-rule="nonzero"/><g clip-path="url(#44b55f033b)"><path fill="#fcd00d" d="M 122.21875 86.992188 L 145.035156 93.535156 L 121.503906 90.527344 C 121.25 90.503906 121.007812 90.429688 120.78125 90.304688 C 120.554688 90.179688 120.367188 90.011719 120.210938 89.804688 C 120.054688 89.597656 119.949219 89.367188 119.894531 89.117188 C 119.835938 88.863281 119.835938 88.613281 119.886719 88.359375 C 119.9375 88.105469 120.039062 87.871094 120.1875 87.664062 C 120.339844 87.453125 120.523438 87.28125 120.746094 87.152344 C 120.96875 87.019531 121.210938 86.941406 121.46875 86.914062 C 121.722656 86.886719 121.972656 86.914062 122.21875 86.992188 Z M 122.21875 86.992188 " fill-opacity="1" fill-rule="nonzero"/></g><path fill="#fcd00d" d="M 122.078125 116.832031 L 145.464844 112.820312 L 122.933594 120.363281 C 120.457031 121.082031 119.550781 117.402344 122.078125 116.832031 Z M 122.078125 116.832031 " fill-opacity="1" fill-rule="nonzero"/><path fill="#fcd00d" d="M 134.84375 143.851562 L 154.179688 130.054688 L 137.175781 146.621094 C 135.222656 148.339844 132.792969 145.429688 134.84375 143.851562 Z M 134.84375 143.851562 " fill-opacity="1" fill-rule="nonzero"/><g fill="#fca203" fill-opacity="1"><g transform="translate(28.707709, 280.611825)"><g><path d="M 39.984375 0 L 39.859375 -18.703125 L 30.953125 -3.6875 L 24.859375 -3.6875 L 15.953125 -18.0625 L 15.953125 0 L 3.34375 0 L 3.34375 -41.03125 L 14.71875 -41.03125 L 28.078125 -19.171875 L 41.09375 -41.03125 L 52.46875 -41.03125 L 52.59375 0 Z M 39.984375 0 "/></g></g></g><g fill="#fca203" fill-opacity="1"><g transform="translate(89.091882, 280.611825)"><g><path d="M 31.3125 -7.15625 L 15.71875 -7.15625 L 12.953125 0 L -1.109375 0 L 16.828125 -41.03125 L 30.421875 -41.03125 L 48.359375 0 L 34.0625 0 Z M 27.5 -17.125 L 23.515625 -27.4375 L 19.515625 -17.125 Z M 27.5 -17.125 "/></g></g></g><g fill="#fca203" fill-opacity="1"><g transform="translate(140.799748, 280.611825)"><g><path d="M 36.171875 -21.453125 C 38.597656 -20.554688 40.472656 -19.25 41.796875 -17.53125 C 43.128906 -15.8125 43.796875 -13.738281 43.796875 -11.3125 C 43.796875 -7.71875 42.304688 -4.929688 39.328125 -2.953125 C 36.359375 -0.984375 32.0625 0 26.4375 0 L 3.34375 0 L 3.34375 -41.03125 L 25.265625 -41.03125 C 30.734375 -41.03125 34.863281 -40.050781 37.65625 -38.09375 C 40.457031 -36.144531 41.859375 -33.550781 41.859375 -30.3125 C 41.859375 -28.394531 41.378906 -26.671875 40.421875 -25.140625 C 39.460938 -23.617188 38.046875 -22.390625 36.171875 -21.453125 Z M 16.9375 -31.359375 L 16.9375 -25.265625 L 23.390625 -25.265625 C 26.398438 -25.265625 27.90625 -26.28125 27.90625 -28.3125 C 27.90625 -30.34375 26.398438 -31.359375 23.390625 -31.359375 Z M 25.265625 -9.671875 C 28.316406 -9.671875 29.84375 -10.742188 29.84375 -12.890625 C 29.84375 -15.046875 28.316406 -16.125 25.265625 -16.125 L 16.9375 -16.125 L 16.9375 -9.671875 Z M 25.265625 -9.671875 "/></g></g></g><g fill="#035184" fill-opacity="1"><g transform="translate(189.432254, 281.798721)"><g><path d="M 36.1875 -21.46875 C 38.601562 -20.5625 40.472656 -19.25 41.796875 -17.53125 C 43.128906 -15.8125 43.796875 -13.738281 43.796875 -11.3125 C 43.796875 -7.71875 42.3125 -4.929688 39.34375 -2.953125 C 36.375 -0.984375 32.078125 0 26.453125 0 L 3.34375 0 L 3.34375 -41.046875 L 25.28125 -41.046875 C 30.75 -41.046875 34.878906 -40.066406 37.671875 -38.109375 C 40.472656 -36.160156 41.875 -33.5625 41.875 -30.3125 C 41.875 -28.394531 41.394531 -26.675781 40.4375 -25.15625 C 39.476562 -23.632812 38.0625 -22.40625 36.1875 -21.46875 Z M 16.953125 -31.375 L 16.953125 -25.28125 L 23.390625 -25.28125 C 26.398438 -25.28125 27.90625 -26.296875 27.90625 -28.328125 C 27.90625 -30.359375 26.398438 -31.375 23.390625 -31.375 Z M 25.28125 -9.671875 C 28.320312 -9.671875 29.84375 -10.75 29.84375 -12.90625 C 29.84375 -15.050781 28.320312 -16.125 25.28125 -16.125 L 16.953125 -16.125 L 16.953125 -9.671875 Z M 25.28125 -9.671875 "/></g></g></g><g fill="#035184" fill-opacity="1"><g transform="translate(242.211787, 281.798721)"><g><path d="M 31.3125 -7.15625 L 15.71875 -7.15625 L 12.953125 0 L -1.109375 0 L 16.828125 -41.046875 L 30.4375 -41.046875 L 48.375 0 L 34.0625 0 Z M 27.5 -17.125 L 23.515625 -27.4375 L 19.53125 -17.125 Z M 27.5 -17.125 "/></g></g></g><g fill="#035184" fill-opacity="1"><g transform="translate(296.926563, 281.798721)"><g><path d="M 20.9375 -10.328125 L 17.1875 -10.328125 L 17.1875 0 L 3.34375 0 L 3.34375 -41.046875 L 23.109375 -41.046875 C 26.898438 -41.046875 30.203125 -40.421875 33.015625 -39.171875 C 35.828125 -37.921875 37.992188 -36.125 39.515625 -33.78125 C 41.046875 -31.4375 41.8125 -28.695312 41.8125 -25.5625 C 41.8125 -22.632812 41.144531 -20.070312 39.8125 -17.875 C 38.488281 -15.6875 36.570312 -13.953125 34.0625 -12.671875 L 42.6875 0 L 27.90625 0 Z M 27.859375 -25.5625 C 27.859375 -27.09375 27.390625 -28.273438 26.453125 -29.109375 C 25.515625 -29.953125 24.101562 -30.375 22.21875 -30.375 L 17.1875 -30.375 L 17.1875 -20.765625 L 22.21875 -20.765625 C 24.101562 -20.765625 25.515625 -21.179688 26.453125 -22.015625 C 27.390625 -22.859375 27.859375 -24.039062 27.859375 -25.5625 Z M 27.859375 -25.5625 "/></g></g></g><g fill="#0b4164" fill-opacity="1"><g transform="translate(64.580585, 328.110272)"><g><path d="M 6.765625 -8.9375 C 6.765625 -9.550781 6.617188 -10.4375 6.328125 -11.59375 C 4.335938 -10.476562 3.34375 -9.648438 3.34375 -9.109375 C 3.34375 -8.609375 4.257812 -8.359375 6.09375 -8.359375 C 6.539062 -8.359375 6.765625 -8.550781 6.765625 -8.9375 Z M 9.1875 -21.46875 L 7.65625 -18.90625 L 5.28125 -20.53125 L 4.125 -18.4375 L 1.53125 -20.296875 L 3.078125 -22.8125 L 5.40625 -21.046875 L 6.828125 -23.296875 Z M 13.390625 -4.171875 C 13.390625 -3.566406 13.175781 -3.140625 12.75 -2.890625 C 12.320312 -2.640625 11.703125 -2.503906 10.890625 -2.484375 C 10.097656 -2.484375 9.476562 -2.601562 9.03125 -2.84375 C 8.59375 -3.082031 8.265625 -3.390625 8.046875 -3.765625 C 7.816406 -4.171875 7.617188 -4.679688 7.453125 -5.296875 C 7.285156 -5.921875 7.144531 -6.597656 7.03125 -7.328125 C 5.644531 -5.328125 4.46875 -4.328125 3.5 -4.328125 C 2.875 -4.328125 2.269531 -4.5 1.6875 -4.84375 C 1.050781 -5.226562 0.734375 -5.691406 0.734375 -6.234375 C 0.734375 -6.847656 1.066406 -7.921875 1.734375 -9.453125 C 2.066406 -10.234375 2.472656 -10.816406 2.953125 -11.203125 C 3.378906 -11.546875 4.410156 -12.175781 6.046875 -13.09375 C 6.046875 -13.1875 5.988281 -13.519531 5.875 -14.09375 C 5.757812 -14.632812 5.703125 -15.003906 5.703125 -15.203125 C 5.703125 -15.648438 6.304688 -16.492188 7.515625 -17.734375 L 7.609375 -17.734375 C 7.722656 -17.160156 7.84375 -16.445312 7.96875 -15.59375 C 8.101562 -14.738281 8.25 -13.738281 8.40625 -12.59375 C 8.476562 -12 8.546875 -11.488281 8.609375 -11.0625 C 8.671875 -10.632812 8.722656 -10.265625 8.765625 -9.953125 C 8.816406 -9.648438 8.859375 -9.394531 8.890625 -9.1875 C 8.921875 -8.988281 8.941406 -8.832031 8.953125 -8.71875 C 9.003906 -8.34375 9.09375 -8.023438 9.21875 -7.765625 C 9.351562 -7.503906 9.539062 -7.300781 9.78125 -7.15625 C 10.019531 -7.007812 10.320312 -6.90625 10.6875 -6.84375 C 11.0625 -6.78125 11.515625 -6.75 12.046875 -6.75 C 12.460938 -6.75 12.789062 -6.601562 13.03125 -6.3125 C 13.269531 -6.019531 13.390625 -5.664062 13.390625 -5.25 Z M 13.390625 -4.171875 "/></g></g></g><g fill="#0b4164" fill-opacity="1"><g transform="translate(76.241243, 328.110272)"><g><path d="M 8.03125 0.828125 L 6.5 3.375 L 4.125 1.734375 L 3.03125 3.859375 L 0.484375 1.953125 L 1.953125 -0.5625 L 4.25 1.265625 L 5.671875 -1.015625 Z M 9.796875 -4.3125 C 9.796875 -4.007812 9.726562 -3.742188 9.59375 -3.515625 C 9.457031 -3.285156 9.273438 -3.09375 9.046875 -2.9375 C 8.828125 -2.78125 8.566406 -2.664062 8.265625 -2.59375 C 7.972656 -2.519531 7.648438 -2.484375 7.296875 -2.484375 C 6.867188 -2.484375 6.476562 -2.554688 6.125 -2.703125 C 5.78125 -2.859375 5.476562 -3.070312 5.21875 -3.34375 C 4.957031 -3.613281 4.726562 -3.921875 4.53125 -4.265625 C 4.34375 -4.617188 4.175781 -4.988281 4.03125 -5.375 L 3.984375 -5.375 C 3.703125 -4.851562 3.40625 -4.410156 3.09375 -4.046875 C 2.789062 -3.679688 2.445312 -3.382812 2.0625 -3.15625 C 1.6875 -2.925781 1.265625 -2.753906 0.796875 -2.640625 C 0.335938 -2.535156 -0.179688 -2.484375 -0.765625 -2.484375 L 0.390625 -6.75 C 0.921875 -6.75 1.394531 -6.796875 1.8125 -6.890625 C 2.226562 -6.984375 2.613281 -7.140625 2.96875 -7.359375 C 3.320312 -7.578125 3.65625 -7.863281 3.96875 -8.21875 C 4.28125 -8.582031 4.59375 -9.023438 4.90625 -9.546875 L 5.125 -9.46875 C 5.195312 -9.070312 5.296875 -8.707031 5.421875 -8.375 C 5.554688 -8.039062 5.75 -7.753906 6 -7.515625 C 6.25 -7.273438 6.570312 -7.085938 6.96875 -6.953125 C 7.375 -6.816406 7.867188 -6.75 8.453125 -6.75 C 8.785156 -6.75 9.09375 -6.628906 9.375 -6.390625 C 9.65625 -6.160156 9.796875 -5.875 9.796875 -5.53125 Z M 9.796875 -4.3125 "/></g></g></g><g fill="#0b4164" fill-opacity="1"><g transform="translate(84.309566, 328.110272)"><g><path d="M 6 0.828125 L 4.5 3.375 L 2.015625 1.53125 L 3.53125 -1.015625 Z M 6.03125 -8.828125 C 6.03125 -6.859375 5.609375 -5.3125 4.765625 -4.1875 C 4.472656 -3.789062 4.117188 -3.476562 3.703125 -3.25 C 3.285156 -3.03125 2.832031 -2.863281 2.34375 -2.75 C 1.851562 -2.632812 1.34375 -2.5625 0.8125 -2.53125 C 0.28125 -2.5 -0.242188 -2.484375 -0.765625 -2.484375 L 0.390625 -6.75 C 0.847656 -6.75 1.300781 -6.753906 1.75 -6.765625 C 2.207031 -6.785156 2.625 -6.832031 3 -6.90625 C 3.375 -6.976562 3.675781 -7.070312 3.90625 -7.1875 C 4.132812 -7.3125 4.25 -7.476562 4.25 -7.6875 C 4.25 -7.925781 4.003906 -8.28125 3.515625 -8.75 C 3.046875 -9.21875 2.8125 -9.640625 2.8125 -10.015625 C 2.8125 -10.191406 2.953125 -10.625 3.234375 -11.3125 C 3.523438 -12.007812 3.96875 -12.953125 4.5625 -14.140625 L 4.65625 -14.140625 C 5.101562 -13.117188 5.441406 -12.164062 5.671875 -11.28125 C 5.910156 -10.40625 6.03125 -9.585938 6.03125 -8.828125 Z M 6.03125 -8.828125 "/></g></g></g><g fill="#0b4164" fill-opacity="1"><g transform="translate(91.590277, 328.110272)"><g><path d="M 15.5625 -4.203125 C 15.5625 -3.628906 15.359375 -3.195312 14.953125 -2.90625 C 14.554688 -2.625 13.9375 -2.484375 13.09375 -2.484375 L 12.421875 -2.484375 C 11.992188 0.660156 11.171875 3.125 9.953125 4.90625 C 8.753906 6.6875 7.3125 7.578125 5.625 7.578125 C 4.65625 7.578125 3.703125 7.363281 2.765625 6.9375 C 2.515625 6.820312 2.175781 6.640625 1.75 6.390625 C 1.320312 6.140625 0.800781 5.820312 0.1875 5.4375 L 0.484375 4.921875 C 1.347656 5.085938 1.972656 5.171875 2.359375 5.171875 C 5.285156 5.171875 8.265625 2.972656 11.296875 -1.421875 C 10.847656 -1.921875 10.445312 -2.398438 10.09375 -2.859375 C 9.65625 -3.421875 9.300781 -3.9375 9.03125 -4.40625 C 8.757812 -4.875 8.5625 -5.296875 8.4375 -5.671875 L 10.671875 -9.03125 L 10.765625 -9.03125 C 10.984375 -8.613281 11.191406 -8.257812 11.390625 -7.96875 C 11.585938 -7.675781 11.8125 -7.441406 12.0625 -7.265625 C 12.3125 -7.085938 12.609375 -6.957031 12.953125 -6.875 C 13.296875 -6.789062 13.71875 -6.75 14.21875 -6.75 C 14.582031 -6.75 14.894531 -6.632812 15.15625 -6.40625 C 15.425781 -6.1875 15.5625 -5.898438 15.5625 -5.546875 Z M 15.5625 -4.203125 "/></g></g></g><g fill="#0b4164" fill-opacity="1"><g transform="translate(105.421688, 328.110272)"><g><path d="M 13.390625 -4.015625 C 13.390625 -3.546875 13.160156 -3.171875 12.703125 -2.890625 C 12.242188 -2.617188 11.640625 -2.484375 10.890625 -2.484375 C 10.359375 -2.484375 9.878906 -2.585938 9.453125 -2.796875 C 9.035156 -3.003906 8.640625 -3.273438 8.265625 -3.609375 C 7.890625 -3.953125 7.519531 -4.328125 7.15625 -4.734375 C 6.800781 -5.140625 6.414062 -5.535156 6 -5.921875 C 5.351562 -5.253906 4.769531 -4.695312 4.25 -4.25 C 3.738281 -3.8125 3.226562 -3.460938 2.71875 -3.203125 C 2.207031 -2.941406 1.671875 -2.753906 1.109375 -2.640625 C 0.554688 -2.535156 -0.0664062 -2.484375 -0.765625 -2.484375 L 0.390625 -6.75 C 0.742188 -6.75 1.070312 -6.753906 1.375 -6.765625 C 1.6875 -6.773438 1.984375 -6.804688 2.265625 -6.859375 C 2.546875 -6.910156 2.820312 -6.988281 3.09375 -7.09375 C 3.375 -7.195312 3.671875 -7.34375 3.984375 -7.53125 C 3.429688 -7.851562 2.414062 -8.332031 0.9375 -8.96875 C 1.53125 -12.445312 3.269531 -14.1875 6.15625 -14.1875 C 7.445312 -14.1875 8.523438 -13.820312 9.390625 -13.09375 C 10.273438 -12.363281 10.71875 -11.453125 10.71875 -10.359375 C 10.71875 -9.078125 9.988281 -8.054688 8.53125 -7.296875 L 8.53125 -7.25 C 8.894531 -7.0625 9.335938 -6.929688 9.859375 -6.859375 C 10.378906 -6.785156 11.109375 -6.75 12.046875 -6.75 C 12.484375 -6.75 12.816406 -6.632812 13.046875 -6.40625 C 13.273438 -6.1875 13.390625 -5.898438 13.390625 -5.546875 Z M 13.390625 -4.015625 "/></g></g></g><g fill="#0b4164" fill-opacity="1"><g transform="translate(117.082345, 328.110272)"><g><path d="M 5.75 -22.546875 C 4.75 -21.597656 4.25 -20.570312 4.25 -19.46875 C 4.25 -18.738281 4.457031 -17.03125 4.875 -14.34375 C 5.300781 -11.65625 5.515625 -9.710938 5.515625 -8.515625 C 5.515625 -6.671875 5.101562 -5.1875 4.28125 -4.0625 C 4 -3.6875 3.675781 -3.390625 3.3125 -3.171875 C 2.957031 -2.960938 2.5625 -2.804688 2.125 -2.703125 C 1.695312 -2.609375 1.238281 -2.546875 0.75 -2.515625 C 0.257812 -2.492188 -0.242188 -2.484375 -0.765625 -2.484375 L 0.390625 -6.75 C 0.816406 -6.75 1.21875 -6.765625 1.59375 -6.796875 C 1.96875 -6.835938 2.285156 -6.925781 2.546875 -7.0625 C 2.816406 -7.195312 3.03125 -7.382812 3.1875 -7.625 C 3.34375 -7.875 3.421875 -8.207031 3.421875 -8.625 C 3.421875 -9.726562 3.109375 -12.003906 2.484375 -15.453125 C 2.160156 -17.203125 1.921875 -18.632812 1.765625 -19.75 C 1.609375 -20.863281 1.53125 -21.671875 1.53125 -22.171875 C 1.53125 -22.890625 1.664062 -23.492188 1.9375 -23.984375 C 2.195312 -24.441406 2.726562 -25.023438 3.53125 -25.734375 C 3.976562 -24.773438 4.71875 -23.710938 5.75 -22.546875 Z M 5.75 -22.546875 "/></g></g></g><g fill="#0b4164" fill-opacity="1"><g transform="translate(124.363057, 328.110272)"><g><path d="M 5.625 -7.875 C 5.625 -6.476562 5.3125 -4.957031 4.6875 -3.3125 L 3.984375 -3.3125 C 3.910156 -5.78125 3.671875 -8.265625 3.265625 -10.765625 C 2.992188 -12.234375 2.734375 -13.707031 2.484375 -15.1875 C 2.253906 -16.488281 2.140625 -17.46875 2.140625 -18.125 C 2.140625 -18.832031 2.375 -19.523438 2.84375 -20.203125 C 3.050781 -20.492188 3.546875 -21.0625 4.328125 -21.90625 C 4.429688 -20.21875 4.679688 -17.742188 5.078125 -14.484375 C 5.441406 -11.441406 5.625 -9.238281 5.625 -7.875 Z M 5.625 -7.875 "/></g></g></g><g fill="#0b4164" fill-opacity="1"><g transform="translate(131.643768, 328.110272)"><g/></g></g><g fill="#0b4164" fill-opacity="1"><g transform="translate(141.248914, 328.110272)"><g><path d="M 6.765625 -8.9375 C 6.765625 -9.550781 6.617188 -10.4375 6.328125 -11.59375 C 4.335938 -10.476562 3.34375 -9.648438 3.34375 -9.109375 C 3.34375 -8.609375 4.257812 -8.359375 6.09375 -8.359375 C 6.539062 -8.359375 6.765625 -8.550781 6.765625 -8.9375 Z M 9.1875 -21.46875 L 7.65625 -18.90625 L 5.28125 -20.53125 L 4.125 -18.4375 L 1.53125 -20.296875 L 3.078125 -22.8125 L 5.40625 -21.046875 L 6.828125 -23.296875 Z M 13.390625 -4.171875 C 13.390625 -3.566406 13.175781 -3.140625 12.75 -2.890625 C 12.320312 -2.640625 11.703125 -2.503906 10.890625 -2.484375 C 10.097656 -2.484375 9.476562 -2.601562 9.03125 -2.84375 C 8.59375 -3.082031 8.265625 -3.390625 8.046875 -3.765625 C 7.816406 -4.171875 7.617188 -4.679688 7.453125 -5.296875 C 7.285156 -5.921875 7.144531 -6.597656 7.03125 -7.328125 C 5.644531 -5.328125 4.46875 -4.328125 3.5 -4.328125 C 2.875 -4.328125 2.269531 -4.5 1.6875 -4.84375 C 1.050781 -5.226562 0.734375 -5.691406 0.734375 -6.234375 C 0.734375 -6.847656 1.066406 -7.921875 1.734375 -9.453125 C 2.066406 -10.234375 2.472656 -10.816406 2.953125 -11.203125 C 3.378906 -11.546875 4.410156 -12.175781 6.046875 -13.09375 C 6.046875 -13.1875 5.988281 -13.519531 5.875 -14.09375 C 5.757812 -14.632812 5.703125 -15.003906 5.703125 -15.203125 C 5.703125 -15.648438 6.304688 -16.492188 7.515625 -17.734375 L 7.609375 -17.734375 C 7.722656 -17.160156 7.84375 -16.445312 7.96875 -15.59375 C 8.101562 -14.738281 8.25 -13.738281 8.40625 -12.59375 C 8.476562 -12 8.546875 -11.488281 8.609375 -11.0625 C 8.671875 -10.632812 8.722656 -10.265625 8.765625 -9.953125 C 8.816406 -9.648438 8.859375 -9.394531 8.890625 -9.1875 C 8.921875 -8.988281 8.941406 -8.832031 8.953125 -8.71875 C 9.003906 -8.34375 9.09375 -8.023438 9.21875 -7.765625 C 9.351562 -7.503906 9.539062 -7.300781 9.78125 -7.15625 C 10.019531 -7.007812 10.320312 -6.90625 10.6875 -6.84375 C 11.0625 -6.78125 11.515625 -6.75 12.046875 -6.75 C 12.460938 -6.75 12.789062 -6.601562 13.03125 -6.3125 C 13.269531 -6.019531 13.390625 -5.664062 13.390625 -5.25 Z M 13.390625 -4.171875 "/></g></g></g><g fill="#0b4164" fill-opacity="1"><g transform="translate(152.909572, 328.110272)"><g><path d="M 7.65625 -18.078125 L 6.15625 -15.5625 L 3.671875 -17.375 L 5.203125 -19.921875 Z M 13.390625 -4.015625 C 13.390625 -3.546875 13.160156 -3.171875 12.703125 -2.890625 C 12.242188 -2.617188 11.640625 -2.484375 10.890625 -2.484375 C 10.359375 -2.484375 9.878906 -2.585938 9.453125 -2.796875 C 9.035156 -3.003906 8.640625 -3.273438 8.265625 -3.609375 C 7.890625 -3.953125 7.519531 -4.328125 7.15625 -4.734375 C 6.800781 -5.140625 6.414062 -5.535156 6 -5.921875 C 5.351562 -5.253906 4.769531 -4.695312 4.25 -4.25 C 3.738281 -3.8125 3.226562 -3.460938 2.71875 -3.203125 C 2.207031 -2.941406 1.671875 -2.753906 1.109375 -2.640625 C 0.554688 -2.535156 -0.0664062 -2.484375 -0.765625 -2.484375 L 0.390625 -6.75 C 0.742188 -6.75 1.070312 -6.753906 1.375 -6.765625 C 1.6875 -6.773438 1.984375 -6.804688 2.265625 -6.859375 C 2.546875 -6.910156 2.820312 -6.988281 3.09375 -7.09375 C 3.375 -7.195312 3.671875 -7.34375 3.984375 -7.53125 C 3.429688 -7.851562 2.414062 -8.332031 0.9375 -8.96875 C 1.53125 -12.445312 3.269531 -14.1875 6.15625 -14.1875 C 7.445312 -14.1875 8.523438 -13.820312 9.390625 -13.09375 C 10.273438 -12.363281 10.71875 -11.453125 10.71875 -10.359375 C 10.71875 -9.078125 9.988281 -8.054688 8.53125 -7.296875 L 8.53125 -7.25 C 8.894531 -7.0625 9.335938 -6.929688 9.859375 -6.859375 C 10.378906 -6.785156 11.109375 -6.75 12.046875 -6.75 C 12.484375 -6.75 12.816406 -6.632812 13.046875 -6.40625 C 13.273438 -6.1875 13.390625 -5.898438 13.390625 -5.546875 Z M 13.390625 -4.015625 "/></g></g></g><g fill="#0b4164" fill-opacity="1"><g transform="translate(164.570229, 328.110272)"><g><path d="M 11.34375 -4.359375 C 11.34375 -4.054688 11.273438 -3.785156 11.140625 -3.546875 C 11.003906 -3.304688 10.820312 -3.101562 10.59375 -2.9375 C 10.363281 -2.78125 10.097656 -2.664062 9.796875 -2.59375 C 9.492188 -2.519531 9.179688 -2.484375 8.859375 -2.484375 C 8.285156 -2.484375 7.738281 -2.566406 7.21875 -2.734375 C 6.695312 -2.898438 6.300781 -3.148438 6.03125 -3.484375 C 5.46875 -4.160156 5.019531 -5.320312 4.6875 -6.96875 L 4.65625 -6.96875 C 4.375 -6.039062 4.070312 -5.28125 3.75 -4.6875 C 3.4375 -4.101562 3.070312 -3.644531 2.65625 -3.3125 C 2.238281 -2.988281 1.753906 -2.769531 1.203125 -2.65625 C 0.660156 -2.539062 0.00390625 -2.484375 -0.765625 -2.484375 L 0.390625 -6.75 C 1.054688 -6.75 1.613281 -6.820312 2.0625 -6.96875 C 2.519531 -7.125 2.882812 -7.378906 3.15625 -7.734375 C 3.4375 -8.097656 3.632812 -8.578125 3.75 -9.171875 C 3.863281 -9.773438 3.921875 -10.523438 3.921875 -11.421875 C 3.921875 -12.035156 3.894531 -12.71875 3.84375 -13.46875 C 3.800781 -14.226562 3.75 -15.03125 3.6875 -15.875 C 3.582031 -17.3125 3.503906 -18.484375 3.453125 -19.390625 C 3.398438 -20.296875 3.375 -20.882812 3.375 -21.15625 C 3.375 -21.550781 3.414062 -21.910156 3.5 -22.234375 C 3.582031 -22.554688 3.703125 -22.863281 3.859375 -23.15625 C 4.023438 -23.445312 4.234375 -23.742188 4.484375 -24.046875 C 4.734375 -24.347656 5.03125 -24.6875 5.375 -25.0625 L 5.453125 -25.0625 C 5.484375 -24.289062 5.507812 -23.53125 5.53125 -22.78125 C 5.5625 -22.039062 5.585938 -21.289062 5.609375 -20.53125 C 5.640625 -19.78125 5.679688 -18.976562 5.734375 -18.125 C 5.796875 -17.28125 5.851562 -16.445312 5.90625 -15.625 C 5.96875 -14.8125 6.03125 -14.0625 6.09375 -13.375 C 6.15625 -12.6875 6.207031 -12.125 6.25 -11.6875 C 6.363281 -10.582031 6.507812 -9.703125 6.6875 -9.046875 C 6.863281 -8.398438 7.097656 -7.90625 7.390625 -7.5625 C 7.679688 -7.21875 8.039062 -6.992188 8.46875 -6.890625 C 8.894531 -6.796875 9.410156 -6.75 10.015625 -6.75 C 10.398438 -6.75 10.71875 -6.628906 10.96875 -6.390625 C 11.21875 -6.160156 11.34375 -5.84375 11.34375 -5.4375 Z M 11.34375 -4.359375 "/></g></g></g><g fill="#0b4164" fill-opacity="1"><g transform="translate(174.175375, 328.110272)"><g><path d="M 5.75 -22.546875 C 4.75 -21.597656 4.25 -20.570312 4.25 -19.46875 C 4.25 -18.738281 4.457031 -17.03125 4.875 -14.34375 C 5.300781 -11.65625 5.515625 -9.710938 5.515625 -8.515625 C 5.515625 -6.671875 5.101562 -5.1875 4.28125 -4.0625 C 4 -3.6875 3.675781 -3.390625 3.3125 -3.171875 C 2.957031 -2.960938 2.5625 -2.804688 2.125 -2.703125 C 1.695312 -2.609375 1.238281 -2.546875 0.75 -2.515625 C 0.257812 -2.492188 -0.242188 -2.484375 -0.765625 -2.484375 L 0.390625 -6.75 C 0.816406 -6.75 1.21875 -6.765625 1.59375 -6.796875 C 1.96875 -6.835938 2.285156 -6.925781 2.546875 -7.0625 C 2.816406 -7.195312 3.03125 -7.382812 3.1875 -7.625 C 3.34375 -7.875 3.421875 -8.207031 3.421875 -8.625 C 3.421875 -9.726562 3.109375 -12.003906 2.484375 -15.453125 C 2.160156 -17.203125 1.921875 -18.632812 1.765625 -19.75 C 1.609375 -20.863281 1.53125 -21.671875 1.53125 -22.171875 C 1.53125 -22.890625 1.664062 -23.492188 1.9375 -23.984375 C 2.195312 -24.441406 2.726562 -25.023438 3.53125 -25.734375 C 3.976562 -24.773438 4.71875 -23.710938 5.75 -22.546875 Z M 5.75 -22.546875 "/></g></g></g><g fill="#0b4164" fill-opacity="1"><g transform="translate(181.456087, 328.110272)"><g><path d="M 5.625 -7.875 C 5.625 -6.476562 5.3125 -4.957031 4.6875 -3.3125 L 3.984375 -3.3125 C 3.910156 -5.78125 3.671875 -8.265625 3.265625 -10.765625 C 2.992188 -12.234375 2.734375 -13.707031 2.484375 -15.1875 C 2.253906 -16.488281 2.140625 -17.46875 2.140625 -18.125 C 2.140625 -18.832031 2.375 -19.523438 2.84375 -20.203125 C 3.050781 -20.492188 3.546875 -21.0625 4.328125 -21.90625 C 4.429688 -20.21875 4.679688 -17.742188 5.078125 -14.484375 C 5.441406 -11.441406 5.625 -9.238281 5.625 -7.875 Z M 5.625 -7.875 "/></g></g></g><g fill="#0b4164" fill-opacity="1"><g transform="translate(188.736798, 328.110272)"><g/></g></g><g fill="#0b4164" fill-opacity="1"><g transform="translate(198.341944, 328.110272)"><g><path d="M 16.578125 -4.359375 C 16.578125 -3.785156 16.335938 -3.328125 15.859375 -2.984375 C 15.390625 -2.648438 14.800781 -2.484375 14.09375 -2.484375 C 13.84375 -2.484375 13.582031 -2.5 13.3125 -2.53125 C 13.050781 -2.5625 12.789062 -2.609375 12.53125 -2.671875 C 12.269531 -2.742188 12.023438 -2.828125 11.796875 -2.921875 C 11.566406 -3.023438 11.363281 -3.140625 11.1875 -3.265625 C 11.195312 -3.085938 11.203125 -2.898438 11.203125 -2.703125 C 11.210938 -2.503906 11.21875 -2.300781 11.21875 -2.09375 C 11.21875 -0.8125 11.003906 0.203125 10.578125 0.953125 C 10.160156 1.710938 9.585938 2.09375 8.859375 2.09375 C 7.898438 2.09375 6.988281 1.488281 6.125 0.28125 C 5.28125 -0.90625 4.878906 -2.222656 4.921875 -3.671875 C 3.066406 -3.160156 2.140625 -2.316406 2.140625 -1.140625 C 2.140625 -0.378906 2.289062 0.773438 2.59375 2.328125 L 3.671875 7.765625 C 3.898438 8.941406 4.015625 9.742188 4.015625 10.171875 C 4.015625 10.835938 3.757812 11.429688 3.25 11.953125 L 3.171875 11.953125 L 1.984375 6.609375 C 1.597656 4.890625 1.328125 3.359375 1.171875 2.015625 C 1.015625 0.679688 0.9375 -0.460938 0.9375 -1.421875 C 0.9375 -3.191406 1.234375 -4.582031 1.828125 -5.59375 C 2.429688 -6.632812 3.472656 -7.570312 4.953125 -8.40625 C 5.285156 -8.59375 5.566406 -8.757812 5.796875 -8.90625 C 6.035156 -9.0625 6.203125 -9.207031 6.296875 -9.34375 C 6.503906 -9.5625 6.71875 -9.9375 6.9375 -10.46875 C 7.832031 -9.65625 8.582031 -9.019531 9.1875 -8.5625 C 9.789062 -8.101562 10.296875 -7.757812 10.703125 -7.53125 C 11.234375 -7.238281 11.847656 -7.035156 12.546875 -6.921875 C 13.253906 -6.804688 14.148438 -6.75 15.234375 -6.75 C 15.679688 -6.75 16.015625 -6.613281 16.234375 -6.34375 C 16.460938 -6.082031 16.578125 -5.769531 16.578125 -5.40625 Z M 16.578125 -4.359375 "/></g></g></g><g fill="#0b4164" fill-opacity="1"><g transform="translate(213.19151, 328.110272)"><g><path d="M 11.34375 -4.359375 C 11.34375 -4.054688 11.273438 -3.785156 11.140625 -3.546875 C 11.003906 -3.304688 10.820312 -3.101562 10.59375 -2.9375 C 10.363281 -2.78125 10.097656 -2.664062 9.796875 -2.59375 C 9.492188 -2.519531 9.179688 -2.484375 8.859375 -2.484375 C 8.285156 -2.484375 7.738281 -2.566406 7.21875 -2.734375 C 6.695312 -2.898438 6.300781 -3.148438 6.03125 -3.484375 C 5.46875 -4.160156 5.019531 -5.320312 4.6875 -6.96875 L 4.65625 -6.96875 C 4.375 -6.039062 4.070312 -5.28125 3.75 -4.6875 C 3.4375 -4.101562 3.070312 -3.644531 2.65625 -3.3125 C 2.238281 -2.988281 1.753906 -2.769531 1.203125 -2.65625 C 0.660156 -2.539062 0.00390625 -2.484375 -0.765625 -2.484375 L 0.390625 -6.75 C 1.054688 -6.75 1.613281 -6.820312 2.0625 -6.96875 C 2.519531 -7.125 2.882812 -7.378906 3.15625 -7.734375 C 3.4375 -8.097656 3.632812 -8.578125 3.75 -9.171875 C 3.863281 -9.773438 3.921875 -10.523438 3.921875 -11.421875 C 3.921875 -12.035156 3.894531 -12.71875 3.84375 -13.46875 C 3.800781 -14.226562 3.75 -15.03125 3.6875 -15.875 C 3.582031 -17.3125 3.503906 -18.484375 3.453125 -19.390625 C 3.398438 -20.296875 3.375 -20.882812 3.375 -21.15625 C 3.375 -21.550781 3.414062 -21.910156 3.5 -22.234375 C 3.582031 -22.554688 3.703125 -22.863281 3.859375 -23.15625 C 4.023438 -23.445312 4.234375 -23.742188 4.484375 -24.046875 C 4.734375 -24.347656 5.03125 -24.6875 5.375 -25.0625 L 5.453125 -25.0625 C 5.484375 -24.289062 5.507812 -23.53125 5.53125 -22.78125 C 5.5625 -22.039062 5.585938 -21.289062 5.609375 -20.53125 C 5.640625 -19.78125 5.679688 -18.976562 5.734375 -18.125 C 5.796875 -17.28125 5.851562 -16.445312 5.90625 -15.625 C 5.96875 -14.8125 6.03125 -14.0625 6.09375 -13.375 C 6.15625 -12.6875 6.207031 -12.125 6.25 -11.6875 C 6.363281 -10.582031 6.507812 -9.703125 6.6875 -9.046875 C 6.863281 -8.398438 7.097656 -7.90625 7.390625 -7.5625 C 7.679688 -7.21875 8.039062 -6.992188 8.46875 -6.890625 C 8.894531 -6.796875 9.410156 -6.75 10.015625 -6.75 C 10.398438 -6.75 10.71875 -6.628906 10.96875 -6.390625 C 11.21875 -6.160156 11.34375 -5.84375 11.34375 -5.4375 Z M 11.34375 -4.359375 "/></g></g></g><g fill="#0b4164" fill-opacity="1"><g transform="translate(222.796656, 328.110272)"><g><path d="M 13.390625 -4.015625 C 13.390625 -3.546875 13.160156 -3.171875 12.703125 -2.890625 C 12.242188 -2.617188 11.640625 -2.484375 10.890625 -2.484375 C 10.359375 -2.484375 9.878906 -2.585938 9.453125 -2.796875 C 9.035156 -3.003906 8.640625 -3.273438 8.265625 -3.609375 C 7.890625 -3.953125 7.519531 -4.328125 7.15625 -4.734375 C 6.800781 -5.140625 6.414062 -5.535156 6 -5.921875 C 5.351562 -5.253906 4.769531 -4.695312 4.25 -4.25 C 3.738281 -3.8125 3.226562 -3.460938 2.71875 -3.203125 C 2.207031 -2.941406 1.671875 -2.753906 1.109375 -2.640625 C 0.554688 -2.535156 -0.0664062 -2.484375 -0.765625 -2.484375 L 0.390625 -6.75 C 0.742188 -6.75 1.070312 -6.753906 1.375 -6.765625 C 1.6875 -6.773438 1.984375 -6.804688 2.265625 -6.859375 C 2.546875 -6.910156 2.820312 -6.988281 3.09375 -7.09375 C 3.375 -7.195312 3.671875 -7.34375 3.984375 -7.53125 C 3.429688 -7.851562 2.414062 -8.332031 0.9375 -8.96875 C 1.53125 -12.445312 3.269531 -14.1875 6.15625 -14.1875 C 7.445312 -14.1875 8.523438 -13.820312 9.390625 -13.09375 C 10.273438 -12.363281 10.71875 -11.453125 10.71875 -10.359375 C 10.71875 -9.078125 9.988281 -8.054688 8.53125 -7.296875 L 8.53125 -7.25 C 8.894531 -7.0625 9.335938 -6.929688 9.859375 -6.859375 C 10.378906 -6.785156 11.109375 -6.75 12.046875 -6.75 C 12.484375 -6.75 12.816406 -6.632812 13.046875 -6.40625 C 13.273438 -6.1875 13.390625 -5.898438 13.390625 -5.546875 Z M 13.390625 -4.015625 "/></g></g></g><g fill="#0b4164" fill-opacity="1"><g transform="translate(234.457314, 328.110272)"><g><path d="M 7.765625 -17.484375 L 6.234375 -14.96875 L 3.859375 -16.625 L 2.671875 -14.484375 L 0.109375 -16.390625 L 1.65625 -18.90625 L 3.90625 -17.109375 L 5.328125 -19.390625 Z M 6.03125 -8.828125 C 6.03125 -6.859375 5.609375 -5.3125 4.765625 -4.1875 C 4.472656 -3.789062 4.101562 -3.476562 3.65625 -3.25 C 3.21875 -3.03125 2.742188 -2.863281 2.234375 -2.75 C 1.734375 -2.632812 1.222656 -2.5625 0.703125 -2.53125 C 0.179688 -2.5 -0.304688 -2.484375 -0.765625 -2.484375 L 0.390625 -6.75 C 0.816406 -6.75 1.257812 -6.753906 1.71875 -6.765625 C 2.175781 -6.785156 2.59375 -6.828125 2.96875 -6.890625 C 3.34375 -6.960938 3.648438 -7.054688 3.890625 -7.171875 C 4.128906 -7.296875 4.25 -7.46875 4.25 -7.6875 C 4.25 -7.925781 4.003906 -8.28125 3.515625 -8.75 C 3.046875 -9.21875 2.8125 -9.640625 2.8125 -10.015625 C 2.8125 -10.410156 3.394531 -11.789062 4.5625 -14.15625 L 4.65625 -14.15625 C 5.101562 -13.132812 5.441406 -12.179688 5.671875 -11.296875 C 5.910156 -10.410156 6.03125 -9.585938 6.03125 -8.828125 Z M 6.03125 -8.828125 "/></g></g></g><g fill="#0b4164" fill-opacity="1"><g transform="translate(241.738025, 328.110272)"><g/></g></g><g fill="#0b4164" fill-opacity="1"><g transform="translate(251.343171, 328.110272)"><g><path d="M 19.921875 -4.03125 C 19.921875 -3.550781 19.6875 -3.171875 19.21875 -2.890625 C 18.757812 -2.617188 18.164062 -2.484375 17.4375 -2.484375 L 16.984375 -2.484375 C 16.710938 0.609375 15.535156 3.0625 13.453125 4.875 C 11.503906 6.5625 9.25 7.40625 6.6875 7.40625 C 2.707031 7.40625 0.71875 5.273438 0.71875 1.015625 C 0.71875 -0.421875 0.925781 -1.707031 1.34375 -2.84375 C 1.789062 -4.019531 2.566406 -5.382812 3.671875 -6.9375 L 4.09375 -6.453125 C 2.832031 -4.359375 2.203125 -2.71875 2.203125 -1.53125 C 2.203125 -0.851562 2.332031 -0.25 2.59375 0.28125 C 2.851562 0.820312 3.222656 1.28125 3.703125 1.65625 C 4.179688 2.039062 4.757812 2.332031 5.4375 2.53125 C 6.113281 2.738281 6.882812 2.84375 7.75 2.84375 C 12.84375 2.84375 15.503906 1.066406 15.734375 -2.484375 L 13.9375 -2.484375 C 12.445312 -2.484375 11.390625 -2.691406 10.765625 -3.109375 C 10.140625 -3.535156 9.828125 -4.175781 9.828125 -5.03125 C 9.828125 -5.363281 9.847656 -5.734375 9.890625 -6.140625 C 9.929688 -6.554688 10.003906 -6.988281 10.109375 -7.4375 C 10.222656 -7.882812 10.363281 -8.34375 10.53125 -8.8125 C 10.707031 -9.289062 10.929688 -9.757812 11.203125 -10.21875 C 11.703125 -11.082031 12.238281 -11.742188 12.8125 -12.203125 C 13.382812 -12.660156 13.910156 -12.890625 14.390625 -12.890625 C 15.117188 -12.890625 15.707031 -12.257812 16.15625 -11 C 16.289062 -10.625 16.445312 -10.0625 16.625 -9.3125 C 16.800781 -8.5625 16.921875 -7.707031 16.984375 -6.75 L 18.578125 -6.75 C 19.066406 -6.75 19.410156 -6.625 19.609375 -6.375 C 19.816406 -6.125 19.921875 -5.832031 19.921875 -5.5 Z M 15.453125 -6.828125 C 14.890625 -8.015625 14 -8.609375 12.78125 -8.609375 C 12.414062 -8.609375 12.144531 -8.523438 11.96875 -8.359375 C 11.800781 -8.203125 11.71875 -8.050781 11.71875 -7.90625 C 11.71875 -7.1875 12.519531 -6.828125 14.125 -6.828125 Z M 17.21875 -17.484375 L 15.6875 -14.96875 L 13.359375 -16.625 L 12.171875 -14.484375 L 9.640625 -16.375 L 11.109375 -18.90625 L 13.4375 -17.078125 L 14.859375 -19.375 Z M 17.21875 -17.484375 "/></g></g></g><g fill="#0b4164" fill-opacity="1"><g transform="translate(269.535328, 328.110272)"><g><path d="M 8.03125 0.828125 L 6.5 3.375 L 4.125 1.734375 L 3.03125 3.859375 L 0.484375 1.953125 L 1.953125 -0.5625 L 4.25 1.265625 L 5.671875 -1.015625 Z M 9.796875 -4.3125 C 9.796875 -4.007812 9.726562 -3.742188 9.59375 -3.515625 C 9.457031 -3.285156 9.273438 -3.09375 9.046875 -2.9375 C 8.828125 -2.78125 8.566406 -2.664062 8.265625 -2.59375 C 7.972656 -2.519531 7.648438 -2.484375 7.296875 -2.484375 C 6.867188 -2.484375 6.476562 -2.554688 6.125 -2.703125 C 5.78125 -2.859375 5.476562 -3.070312 5.21875 -3.34375 C 4.957031 -3.613281 4.726562 -3.921875 4.53125 -4.265625 C 4.34375 -4.617188 4.175781 -4.988281 4.03125 -5.375 L 3.984375 -5.375 C 3.703125 -4.851562 3.40625 -4.410156 3.09375 -4.046875 C 2.789062 -3.679688 2.445312 -3.382812 2.0625 -3.15625 C 1.6875 -2.925781 1.265625 -2.753906 0.796875 -2.640625 C 0.335938 -2.535156 -0.179688 -2.484375 -0.765625 -2.484375 L 0.390625 -6.75 C 0.921875 -6.75 1.394531 -6.796875 1.8125 -6.890625 C 2.226562 -6.984375 2.613281 -7.140625 2.96875 -7.359375 C 3.320312 -7.578125 3.65625 -7.863281 3.96875 -8.21875 C 4.28125 -8.582031 4.59375 -9.023438 4.90625 -9.546875 L 5.125 -9.46875 C 5.195312 -9.070312 5.296875 -8.707031 5.421875 -8.375 C 5.554688 -8.039062 5.75 -7.753906 6 -7.515625 C 6.25 -7.273438 6.570312 -7.085938 6.96875 -6.953125 C 7.375 -6.816406 7.867188 -6.75 8.453125 -6.75 C 8.785156 -6.75 9.09375 -6.628906 9.375 -6.390625 C 9.65625 -6.160156 9.796875 -5.875 9.796875 -5.53125 Z M 9.796875 -4.3125 "/></g></g></g><g fill="#0b4164" fill-opacity="1"><g transform="translate(277.603651, 328.110272)"><g><path d="M 6.375 0.828125 L 4.875 3.375 L 2.40625 1.53125 L 3.921875 -1.015625 Z M 9.796875 -4.3125 C 9.796875 -4.007812 9.726562 -3.742188 9.59375 -3.515625 C 9.457031 -3.285156 9.273438 -3.09375 9.046875 -2.9375 C 8.828125 -2.78125 8.566406 -2.664062 8.265625 -2.59375 C 7.972656 -2.519531 7.648438 -2.484375 7.296875 -2.484375 C 6.867188 -2.484375 6.476562 -2.554688 6.125 -2.703125 C 5.78125 -2.859375 5.476562 -3.070312 5.21875 -3.34375 C 4.957031 -3.613281 4.726562 -3.921875 4.53125 -4.265625 C 4.34375 -4.617188 4.175781 -4.988281 4.03125 -5.375 L 3.984375 -5.375 C 3.703125 -4.851562 3.40625 -4.410156 3.09375 -4.046875 C 2.789062 -3.679688 2.445312 -3.382812 2.0625 -3.15625 C 1.6875 -2.925781 1.265625 -2.753906 0.796875 -2.640625 C 0.335938 -2.535156 -0.179688 -2.484375 -0.765625 -2.484375 L 0.390625 -6.75 C 0.921875 -6.75 1.394531 -6.796875 1.8125 -6.890625 C 2.226562 -6.984375 2.613281 -7.140625 2.96875 -7.359375 C 3.320312 -7.578125 3.65625 -7.863281 3.96875 -8.21875 C 4.28125 -8.582031 4.59375 -9.023438 4.90625 -9.546875 L 5.125 -9.46875 C 5.195312 -9.070312 5.296875 -8.707031 5.421875 -8.375 C 5.554688 -8.039062 5.75 -7.753906 6 -7.515625 C 6.25 -7.273438 6.570312 -7.085938 6.96875 -6.953125 C 7.375 -6.816406 7.867188 -6.75 8.453125 -6.75 C 8.785156 -6.75 9.09375 -6.628906 9.375 -6.390625 C 9.65625 -6.160156 9.796875 -5.875 9.796875 -5.53125 Z M 9.796875 -4.3125 "/></g></g></g><g fill="#0b4164" fill-opacity="1"><g transform="translate(285.671974, 328.110272)"><g><path d="M 19.1875 -4.0625 C 19.1875 -3.539062 18.957031 -3.144531 18.5 -2.875 C 18.050781 -2.613281 17.445312 -2.484375 16.6875 -2.484375 L 11.515625 -2.484375 C 10.515625 -2.484375 9.640625 -2.53125 8.890625 -2.625 C 8.140625 -2.71875 7.507812 -2.835938 7 -2.984375 C 5.957031 -2.785156 4.800781 -2.648438 3.53125 -2.578125 C 2.269531 -2.515625 0.835938 -2.484375 -0.765625 -2.484375 L 0.390625 -6.75 C 0.691406 -6.75 1.046875 -6.75 1.453125 -6.75 C 1.859375 -6.757812 2.285156 -6.796875 2.734375 -6.859375 C 3.128906 -7.859375 3.328125 -8.785156 3.328125 -9.640625 C 3.328125 -10.972656 3.035156 -13.039062 2.453125 -15.84375 C 2.171875 -17.238281 1.957031 -18.410156 1.8125 -19.359375 C 1.675781 -20.304688 1.609375 -21.046875 1.609375 -21.578125 C 1.609375 -22.960938 2.28125 -24.398438 3.625 -25.890625 C 3.914062 -25.398438 4.226562 -24.878906 4.5625 -24.328125 C 4.90625 -23.773438 5.28125 -23.191406 5.6875 -22.578125 C 4.632812 -21.128906 4.109375 -19.90625 4.109375 -18.90625 C 4.109375 -18.84375 4.132812 -18.628906 4.1875 -18.265625 C 4.238281 -17.898438 4.316406 -17.375 4.421875 -16.6875 C 4.523438 -16 4.601562 -15.378906 4.65625 -14.828125 C 4.707031 -14.285156 4.734375 -13.796875 4.734375 -13.359375 C 4.734375 -11.910156 4.578125 -10.410156 4.265625 -8.859375 C 4.890625 -9.828125 5.570312 -10.710938 6.3125 -11.515625 C 7.0625 -12.316406 7.796875 -12.992188 8.515625 -13.546875 C 9.242188 -14.109375 9.925781 -14.539062 10.5625 -14.84375 C 11.195312 -15.15625 11.722656 -15.3125 12.140625 -15.3125 C 12.515625 -15.3125 12.921875 -15.195312 13.359375 -14.96875 C 13.796875 -14.75 14.195312 -14.476562 14.5625 -14.15625 C 14.9375 -13.832031 15.25 -13.488281 15.5 -13.125 C 15.75 -12.769531 15.875 -12.457031 15.875 -12.1875 C 15.882812 -10.914062 15.679688 -9.800781 15.265625 -8.84375 C 14.847656 -7.882812 14.113281 -6.992188 13.0625 -6.171875 L 13.125 -6.09375 C 13.4375 -6.164062 13.734375 -6.238281 14.015625 -6.3125 C 14.296875 -6.394531 14.609375 -6.46875 14.953125 -6.53125 C 15.304688 -6.59375 15.710938 -6.644531 16.171875 -6.6875 C 16.640625 -6.726562 17.191406 -6.75 17.828125 -6.75 C 18.203125 -6.75 18.519531 -6.628906 18.78125 -6.390625 C 19.050781 -6.148438 19.1875 -5.828125 19.1875 -5.421875 Z M 11.09375 -11.109375 C 10.738281 -11.109375 10.316406 -11.019531 9.828125 -10.84375 C 9.347656 -10.675781 8.828125 -10.414062 8.265625 -10.0625 C 7.710938 -9.71875 7.144531 -9.285156 6.5625 -8.765625 C 5.976562 -8.253906 5.410156 -7.644531 4.859375 -6.9375 C 5.566406 -6.976562 6.203125 -7.03125 6.765625 -7.09375 C 7.335938 -7.15625 7.875 -7.226562 8.375 -7.3125 C 8.875 -7.40625 9.34375 -7.515625 9.78125 -7.640625 C 10.226562 -7.765625 10.675781 -7.910156 11.125 -8.078125 C 11.832031 -8.328125 12.394531 -8.570312 12.8125 -8.8125 C 13.238281 -9.050781 13.546875 -9.3125 13.734375 -9.59375 C 13.597656 -9.769531 13.425781 -9.945312 13.21875 -10.125 C 13.019531 -10.300781 12.800781 -10.460938 12.5625 -10.609375 C 12.320312 -10.765625 12.078125 -10.882812 11.828125 -10.96875 C 11.578125 -11.0625 11.332031 -11.109375 11.09375 -11.109375 Z M 11.09375 -11.109375 "/></g></g></g><g fill="#0b4164" fill-opacity="1"><g transform="translate(303.11492, 328.110272)"><g><path d="M 7.765625 -17.484375 L 6.234375 -14.96875 L 3.859375 -16.625 L 2.671875 -14.484375 L 0.109375 -16.390625 L 1.65625 -18.90625 L 3.90625 -17.109375 L 5.328125 -19.390625 Z M 6.03125 -8.828125 C 6.03125 -6.859375 5.609375 -5.3125 4.765625 -4.1875 C 4.472656 -3.789062 4.101562 -3.476562 3.65625 -3.25 C 3.21875 -3.03125 2.742188 -2.863281 2.234375 -2.75 C 1.734375 -2.632812 1.222656 -2.5625 0.703125 -2.53125 C 0.179688 -2.5 -0.304688 -2.484375 -0.765625 -2.484375 L 0.390625 -6.75 C 0.816406 -6.75 1.257812 -6.753906 1.71875 -6.765625 C 2.175781 -6.785156 2.59375 -6.828125 2.96875 -6.890625 C 3.34375 -6.960938 3.648438 -7.054688 3.890625 -7.171875 C 4.128906 -7.296875 4.25 -7.46875 4.25 -7.6875 C 4.25 -7.925781 4.003906 -8.28125 3.515625 -8.75 C 3.046875 -9.21875 2.8125 -9.640625 2.8125 -10.015625 C 2.8125 -10.410156 3.394531 -11.789062 4.5625 -14.15625 L 4.65625 -14.15625 C 5.101562 -13.132812 5.441406 -12.179688 5.671875 -11.296875 C 5.910156 -10.410156 6.03125 -9.585938 6.03125 -8.828125 Z M 6.03125 -8.828125 "/></g></g></g></svg>