<svg xmlns="http://www.w3.org/2000/svg" xmlns:xlink="http://www.w3.org/1999/xlink" width="247" zoomAndPan="magnify" viewBox="0 0 185.25 104.249996" height="139" preserveAspectRatio="xMidYMid meet" version="1.0"><defs><clipPath id="c4c8b85fde"><path d="M 0.289062 30 L 183.472656 30 L 183.472656 103 L 0.289062 103 Z M 0.289062 30 " clip-rule="nonzero"/></clipPath><clipPath id="e8d5f0778b"><path d="M 0.289062 30 L 183.472656 30 L 183.472656 103 L 0.289062 103 Z M 0.289062 30 " clip-rule="nonzero"/></clipPath></defs><g clip-path="url(#c4c8b85fde)"><path fill="#ffffff" d="M 123.878906 90.703125 C 119.871094 91.207031 116.042969 91.945312 112.171875 92.914062 C 108.4375 93.882812 104.707031 95.035156 100.835938 96.324219 C 100.464844 97.382812 99.683594 98.304688 98.300781 98.996094 C 96.410156 99.917969 92.585938 99.828125 90.695312 98.90625 C 89.496094 98.261719 88.621094 97.429688 88.023438 96.460938 C 70.046875 92.960938 58.066406 90.886719 46.21875 90.65625 C 34.421875 90.425781 22.714844 91.992188 5.203125 95.863281 C 4.371094 96 3.632812 95.402344 3.679688 94.527344 C 4.28125 81.578125 5.523438 68.671875 6.167969 55.722656 C 6.585938 47.285156 6.722656 38.851562 6.953125 30.464844 C 5.617188 30.601562 4.003906 30.417969 3.910156 30.648438 C 3.035156 32.675781 2.988281 51.757812 2.757812 56.042969 C 2.480469 60.421875 2.207031 65.121094 1.929688 70.101562 C 1.375 78.949219 0.777344 88.535156 0.363281 97.613281 C 0.316406 98.351562 0.683594 98.8125 1.238281 98.675781 L 5.617188 98.304688 C 20.179688 97.015625 34.238281 95.957031 48.847656 95.726562 C 62.628906 95.449219 74.148438 95.21875 87.375 100.839844 C 92.953125 103.238281 98.207031 103.191406 102.769531 99.875 C 106.136719 98.261719 110.050781 96.417969 116.226562 95.957031 C 131.898438 94.621094 149.273438 95.585938 166.003906 96.554688 C 172.085938 96.878906 178.03125 97.199219 183.746094 97.429688 C 183.792969 85.953125 182.503906 73.972656 181.257812 62.171875 C 180.476562 54.707031 179.691406 47.378906 179.367188 39.914062 C 179.277344 37.007812 179.136719 34.335938 178.769531 31.292969 C 178.078125 31.0625 177.386719 30.785156 176.742188 30.554688 C 176.835938 32.953125 176.972656 35.351562 177.066406 37.792969 C 177.710938 51.941406 178.632812 65.492188 180.199219 79.59375 C 180.660156 83.417969 181.074219 87.292969 181.488281 91.484375 C 181.582031 92.316406 180.9375 93.050781 180.105469 92.960938 C 176.003906 92.683594 171.394531 92.269531 166.648438 91.855469 C 152.316406 90.5625 136.644531 89.132812 123.878906 90.703125 Z M 123.878906 90.703125 " fill-opacity="1" fill-rule="evenodd"/></g><path fill="#ffffff" d="M 123.554688 88.167969 C 136.554688 86.554688 152.40625 87.984375 166.878906 89.320312 C 170.933594 89.6875 174.898438 90.011719 178.769531 90.285156 C 178.449219 86.875 178.03125 83.375 177.664062 79.871094 C 177.019531 74.0625 176.375 68.257812 175.867188 62.128906 C 175.265625 54.523438 174.898438 46.179688 174.53125 37.882812 C 174.34375 34.058594 174.160156 30.1875 173.976562 26.316406 C 173.46875 26.179688 172.960938 26.039062 172.457031 25.855469 C 172.546875 27.699219 172.59375 29.726562 172.777344 32.398438 C 173.929688 49.316406 175.265625 66.183594 176.234375 83.097656 C 176.28125 83.789062 175.726562 84.433594 175.035156 84.433594 C 168.769531 84.800781 159.367188 83.375 152.683594 83.003906 C 129.457031 81.808594 122.402344 81.4375 100.417969 92.175781 C 100.605469 92.636719 100.789062 93.097656 100.925781 93.605469 C 108.347656 91.117188 115.765625 89.089844 123.554688 88.167969 Z M 123.554688 88.167969 " fill-opacity="1" fill-rule="evenodd"/><path fill="#ffffff" d="M 98.898438 90.054688 C 121.804688 78.8125 128.949219 79.226562 152.820312 80.46875 C 159.734375 80.839844 166.648438 81.484375 173.609375 81.808594 C 172.917969 70.191406 171.902344 56.410156 171.121094 45.257812 C 170.796875 40.417969 170.472656 36.085938 170.242188 32.539062 C 169.921875 28.253906 169.96875 23.875 169.550781 19.585938 C 168.859375 19.496094 168.125 19.402344 167.433594 19.265625 C 167.523438 21.429688 167.617188 23.597656 167.707031 25.761719 C 168.214844 37.652344 168.90625 49.269531 169.921875 61.113281 C 170.382812 66.273438 170.84375 71.484375 171.164062 76.921875 C 171.164062 77.703125 170.660156 78.304688 169.828125 78.257812 C 165.679688 78.074219 161.578125 77.703125 157.476562 77.335938 C 146.414062 76.367188 135.078125 75.402344 124.523438 77.335938 C 111.066406 79.824219 107.609375 82.222656 97.792969 89.132812 C 98.160156 89.410156 98.578125 89.734375 98.898438 90.054688 Z M 98.898438 90.054688 " fill-opacity="1" fill-rule="evenodd"/><path fill="#ffffff" d="M 124.0625 74.847656 C 138.671875 72.128906 153.835938 74.753906 168.539062 75.632812 C 168.214844 70.882812 167.800781 66.136719 167.386719 61.34375 C 166.324219 49.453125 165.636719 37.792969 165.175781 25.902344 C 165.035156 22.628906 164.898438 19.355469 164.714844 16.085938 C 163.421875 15.761719 162.085938 15.394531 160.75 15.023438 C 161.117188 22.492188 160.796875 30.003906 161.164062 37.46875 C 161.53125 46.179688 162.59375 54.84375 163.101562 63.554688 C 163.101562 64.292969 162.59375 64.890625 161.855469 64.9375 C 147.753906 65.628906 135.675781 64.339844 121.621094 68.765625 C 107.472656 73.1875 105.398438 75.402344 96.824219 86.691406 C 106.597656 79.777344 110.28125 77.382812 124.0625 74.847656 Z M 124.0625 74.847656 " fill-opacity="1" fill-rule="evenodd"/><path fill="#ffffff" d="M 90.648438 87.015625 C 77.46875 71.527344 63.917969 66.320312 43.824219 65.492188 C 37.648438 65.261719 31.933594 65.769531 26.726562 66.597656 C 25.894531 66.734375 25.113281 66.089844 25.15625 65.261719 L 25.433594 60.882812 C 26.171875 48.945312 26.726562 37.101562 27.09375 25.164062 C 27.277344 20.09375 27.417969 14.933594 27.648438 9.910156 C 25.804688 10.507812 23.820312 11.246094 22.160156 12.167969 C 21.976562 17.007812 22.023438 21.707031 22.117188 26.410156 C 22.347656 42.769531 20.320312 57.839844 19.121094 73.925781 C 34.972656 72.449219 42.949219 69.453125 60.09375 72.910156 C 70.832031 75.125 78.667969 78.902344 87.605469 84.988281 C 88.574219 85.632812 89.589844 86.324219 90.648438 87.015625 Z M 90.648438 87.015625 " fill-opacity="1" fill-rule="evenodd"/><path fill="#ffffff" d="M 76.546875 81.253906 C 61.289062 73.972656 47.648438 72.496094 30.640625 75.03125 C 26.957031 75.585938 22.898438 76.230469 17.828125 76.644531 C 17.046875 76.691406 16.402344 76.089844 16.445312 75.261719 C 16.816406 70.101562 17.324219 64.890625 17.875 59.730469 C 18.476562 53.878906 19.074219 48.023438 19.398438 42.308594 C 19.859375 33.96875 19.398438 25.625 19.488281 17.28125 C 18.152344 17.742188 16.863281 18.203125 15.570312 18.621094 C 15.617188 27.46875 16.261719 36.269531 16.078125 45.121094 C 15.894531 52.539062 15.203125 60.789062 14.511719 69.222656 C 14.050781 74.292969 13.636719 79.410156 13.3125 84.339844 C 29.582031 79.871094 40.78125 78.351562 51.613281 79.410156 C 62.71875 80.515625 73.320312 84.296875 88.574219 90.332031 C 88.851562 90.011719 89.21875 89.6875 89.589844 89.363281 C 85.304688 86.601562 81.15625 83.464844 76.546875 81.253906 Z M 76.546875 81.253906 " fill-opacity="1" fill-rule="evenodd"/><path fill="#ffffff" d="M 87.421875 92.636719 C 72.492188 86.691406 62.121094 83.003906 51.382812 81.992188 C 40.503906 80.886719 29.167969 82.542969 12.253906 87.292969 C 11.609375 87.523438 10.871094 87.105469 10.6875 86.414062 C 10.132812 84.480469 13.359375 50.835938 13.496094 45.074219 C 13.683594 38.023438 13.3125 31.0625 13.082031 24.011719 C 11.929688 24.519531 10.777344 24.980469 9.625 25.441406 C 9.347656 35.582031 9.257812 45.71875 8.75 55.859375 C 8.105469 68.210938 6.953125 80.609375 6.308594 92.960938 C 23.082031 89.363281 34.605469 87.84375 46.265625 88.074219 C 58.066406 88.351562 69.863281 90.332031 87.285156 93.699219 C 87.285156 93.375 87.332031 93.007812 87.421875 92.636719 Z M 87.421875 92.636719 " fill-opacity="1" fill-rule="evenodd"/><path fill="#ffffff" d="M 92.214844 84.894531 L 92.171875 82.957031 C 91.664062 62.957031 91.753906 42.90625 91.664062 22.90625 C 90.417969 21.9375 89.359375 21.015625 88.160156 20.003906 C 83.042969 15.671875 74.886719 8.15625 69.726562 5.53125 C 61.382812 1.246094 51.429688 0 42.257812 1.980469 C 38.476562 2.8125 34.742188 4.148438 30.367188 5.761719 C 30.089844 12.214844 29.859375 18.804688 29.675781 25.210938 C 29.257812 38.160156 28.613281 50.925781 27.832031 63.832031 C 32.761719 63.140625 38.15625 62.726562 43.914062 62.957031 C 64.054688 63.785156 78.988281 69.363281 92.214844 84.894531 Z M 92.214844 84.894531 " fill-opacity="1" fill-rule="evenodd"/><path fill="#ffffff" d="M 94.472656 71.113281 C 94.566406 75.769531 94.660156 80.46875 94.75 85.125 C 109.636719 62.265625 133.097656 61.988281 160.425781 62.359375 C 160.195312 58.578125 159.875 54.613281 159.550781 50.695312 C 158.351562 36.6875 159.183594 22.03125 157.660156 8.617188 C 131.4375 3.363281 114.84375 1.890625 94.289062 22.582031 C 94.152344 22.769531 94.429688 67.566406 94.472656 71.113281 Z M 94.472656 71.113281 " fill-opacity="1" fill-rule="evenodd"/><path fill="#ffffff" d="M 94.519531 90.5625 C 93.738281 90.425781 92.90625 90.515625 92.078125 90.886719 L 91.894531 90.976562 C 91.0625 91.394531 90.464844 91.945312 90.140625 92.589844 C 89.957031 93.007812 89.867188 93.375 89.867188 93.789062 C 89.820312 94.160156 89.910156 94.574219 90.140625 94.941406 C 90.417969 95.585938 91.019531 96.1875 91.847656 96.601562 C 92.492188 96.921875 93.507812 97.0625 94.519531 97.0625 C 95.582031 97.109375 96.59375 96.96875 97.195312 96.691406 L 97.195312 96.648438 C 97.886719 96.324219 98.253906 95.910156 98.4375 95.449219 C 98.621094 94.851562 98.4375 94.113281 98.160156 93.421875 L 98.023438 93.191406 C 97.46875 92.039062 96.546875 91.253906 95.488281 90.839844 C 95.351562 90.792969 95.257812 90.746094 95.164062 90.703125 C 94.933594 90.703125 94.75 90.65625 94.519531 90.5625 Z M 94.519531 90.5625 " fill-opacity="1" fill-rule="evenodd"/><g clip-path="url(#e8d5f0778b)"><path fill="#ffffff" d="M 123.878906 90.703125 C 119.871094 91.207031 116.042969 91.945312 112.171875 92.914062 C 108.4375 93.882812 104.707031 95.035156 100.835938 96.324219 C 100.464844 97.382812 99.683594 98.304688 98.300781 98.996094 C 96.410156 99.917969 92.585938 99.828125 90.695312 98.90625 C 89.496094 98.261719 88.621094 97.429688 88.023438 96.460938 C 70.046875 92.960938 58.066406 90.886719 46.21875 90.65625 C 34.421875 90.425781 22.714844 91.992188 5.203125 95.863281 C 4.371094 96 3.632812 95.402344 3.679688 94.527344 C 4.28125 81.578125 5.523438 68.671875 6.167969 55.722656 C 6.585938 47.285156 6.722656 38.851562 6.953125 30.464844 C 5.617188 30.601562 4.003906 30.417969 3.910156 30.648438 C 3.035156 32.675781 2.988281 51.757812 2.757812 56.042969 C 2.480469 60.421875 2.207031 65.121094 1.929688 70.101562 C 1.375 78.949219 0.777344 88.535156 0.363281 97.613281 C 0.316406 98.351562 0.683594 98.8125 1.238281 98.675781 L 5.617188 98.304688 C 20.179688 97.015625 34.238281 95.957031 48.847656 95.726562 C 62.628906 95.449219 74.148438 95.21875 87.375 100.839844 C 92.953125 103.238281 98.207031 103.191406 102.769531 99.875 C 106.136719 98.261719 110.050781 96.417969 116.226562 95.957031 C 131.898438 94.621094 149.273438 95.585938 166.003906 96.554688 C 172.085938 96.878906 178.03125 97.199219 183.746094 97.429688 C 183.792969 85.953125 182.503906 73.972656 181.257812 62.171875 C 180.476562 54.707031 179.691406 47.378906 179.367188 39.914062 C 179.277344 37.007812 179.136719 34.335938 178.769531 31.292969 C 178.078125 31.0625 177.386719 30.785156 176.742188 30.554688 C 176.835938 32.953125 176.972656 35.351562 177.066406 37.792969 C 177.710938 51.941406 178.632812 65.492188 180.199219 79.59375 C 180.660156 83.417969 181.074219 87.292969 181.488281 91.484375 C 181.582031 92.316406 180.9375 93.050781 180.105469 92.960938 C 176.003906 92.683594 171.394531 92.269531 166.648438 91.855469 C 152.316406 90.5625 136.644531 89.132812 123.878906 90.703125 Z M 123.878906 90.703125 " fill-opacity="1" fill-rule="evenodd"/></g><path fill="#ffffff" d="M 123.554688 88.167969 C 136.554688 86.554688 152.40625 87.984375 166.878906 89.320312 C 170.933594 89.6875 174.898438 90.011719 178.769531 90.285156 C 178.449219 86.875 178.03125 83.375 177.664062 79.871094 C 177.019531 74.0625 176.375 68.257812 175.867188 62.128906 C 175.265625 54.523438 174.898438 46.179688 174.53125 37.882812 C 174.34375 34.058594 174.160156 30.1875 173.976562 26.316406 C 173.46875 26.179688 172.960938 26.039062 172.457031 25.855469 C 172.546875 27.699219 172.59375 29.726562 172.777344 32.398438 C 173.929688 49.316406 175.265625 66.183594 176.234375 83.097656 C 176.28125 83.789062 175.726562 84.433594 175.035156 84.433594 C 168.769531 84.800781 159.367188 83.375 152.683594 83.003906 C 129.457031 81.808594 122.402344 81.4375 100.417969 92.175781 C 100.605469 92.636719 100.789062 93.097656 100.925781 93.605469 C 108.347656 91.117188 115.765625 89.089844 123.554688 88.167969 Z M 123.554688 88.167969 " fill-opacity="1" fill-rule="evenodd"/><path fill="#ffffff" d="M 98.898438 90.054688 C 121.804688 78.8125 128.949219 79.226562 152.820312 80.46875 C 159.734375 80.839844 166.648438 81.484375 173.609375 81.808594 C 172.917969 70.191406 171.902344 56.410156 171.121094 45.257812 C 170.796875 40.417969 170.472656 36.085938 170.242188 32.539062 C 169.921875 28.253906 169.96875 23.875 169.550781 19.585938 C 168.859375 19.496094 168.125 19.402344 167.433594 19.265625 C 167.523438 21.429688 167.617188 23.597656 167.707031 25.761719 C 168.214844 37.652344 168.90625 49.269531 169.921875 61.113281 C 170.382812 66.273438 170.84375 71.484375 171.164062 76.921875 C 171.164062 77.703125 170.660156 78.304688 169.828125 78.257812 C 165.679688 78.074219 161.578125 77.703125 157.476562 77.335938 C 146.414062 76.367188 135.078125 75.402344 124.523438 77.335938 C 111.066406 79.824219 107.609375 82.222656 97.792969 89.132812 C 98.160156 89.410156 98.578125 89.734375 98.898438 90.054688 Z M 98.898438 90.054688 " fill-opacity="1" fill-rule="evenodd"/><path fill="#ffffff" d="M 124.0625 74.847656 C 138.671875 72.128906 153.835938 74.753906 168.539062 75.632812 C 168.214844 70.882812 167.800781 66.136719 167.386719 61.34375 C 166.324219 49.453125 165.636719 37.792969 165.175781 25.902344 C 165.035156 22.628906 164.898438 19.355469 164.714844 16.085938 C 163.421875 15.761719 162.085938 15.394531 160.75 15.023438 C 161.117188 22.492188 160.796875 30.003906 161.164062 37.46875 C 161.53125 46.179688 162.59375 54.84375 163.101562 63.554688 C 163.101562 64.292969 162.59375 64.890625 161.855469 64.9375 C 147.753906 65.628906 135.675781 64.339844 121.621094 68.765625 C 107.472656 73.1875 105.398438 75.402344 96.824219 86.691406 C 106.597656 79.777344 110.28125 77.382812 124.0625 74.847656 Z M 124.0625 74.847656 " fill-opacity="1" fill-rule="evenodd"/><path fill="#ffffff" d="M 90.648438 87.015625 C 77.46875 71.527344 63.917969 66.320312 43.824219 65.492188 C 37.648438 65.261719 31.933594 65.769531 26.726562 66.597656 C 25.894531 66.734375 25.113281 66.089844 25.15625 65.261719 L 25.433594 60.882812 C 26.171875 48.945312 26.726562 37.101562 27.09375 25.164062 C 27.277344 20.09375 27.417969 14.933594 27.648438 9.910156 C 25.804688 10.507812 23.820312 11.246094 22.160156 12.167969 C 21.976562 17.007812 22.023438 21.707031 22.117188 26.410156 C 22.347656 42.769531 20.320312 57.839844 19.121094 73.925781 C 34.972656 72.449219 42.949219 69.453125 60.09375 72.910156 C 70.832031 75.125 78.667969 78.902344 87.605469 84.988281 C 88.574219 85.632812 89.589844 86.324219 90.648438 87.015625 Z M 90.648438 87.015625 " fill-opacity="1" fill-rule="evenodd"/><path fill="#ffffff" d="M 76.546875 81.253906 C 61.289062 73.972656 47.648438 72.496094 30.640625 75.03125 C 26.957031 75.585938 22.898438 76.230469 17.828125 76.644531 C 17.046875 76.691406 16.402344 76.089844 16.445312 75.261719 C 16.816406 70.101562 17.324219 64.890625 17.875 59.730469 C 18.476562 53.878906 19.074219 48.023438 19.398438 42.308594 C 19.859375 33.96875 19.398438 25.625 19.488281 17.28125 C 18.152344 17.742188 16.863281 18.203125 15.570312 18.621094 C 15.617188 27.46875 16.261719 36.269531 16.078125 45.121094 C 15.894531 52.539062 15.203125 60.789062 14.511719 69.222656 C 14.050781 74.292969 13.636719 79.410156 13.3125 84.339844 C 29.582031 79.871094 40.78125 78.351562 51.613281 79.410156 C 62.71875 80.515625 73.320312 84.296875 88.574219 90.332031 C 88.851562 90.011719 89.21875 89.6875 89.589844 89.363281 C 85.304688 86.601562 81.15625 83.464844 76.546875 81.253906 Z M 76.546875 81.253906 " fill-opacity="1" fill-rule="evenodd"/><path fill="#ffffff" d="M 87.421875 92.636719 C 72.492188 86.691406 62.121094 83.003906 51.382812 81.992188 C 40.503906 80.886719 29.167969 82.542969 12.253906 87.292969 C 11.609375 87.523438 10.871094 87.105469 10.6875 86.414062 C 10.132812 84.480469 13.359375 50.835938 13.496094 45.074219 C 13.683594 38.023438 13.3125 31.0625 13.082031 24.011719 C 11.929688 24.519531 10.777344 24.980469 9.625 25.441406 C 9.347656 35.582031 9.257812 45.71875 8.75 55.859375 C 8.105469 68.210938 6.953125 80.609375 6.308594 92.960938 C 23.082031 89.363281 34.605469 87.84375 46.265625 88.074219 C 58.066406 88.351562 69.863281 90.332031 87.285156 93.699219 C 87.285156 93.375 87.332031 93.007812 87.421875 92.636719 Z M 87.421875 92.636719 " fill-opacity="1" fill-rule="evenodd"/><path fill="#ffffff" d="M 92.214844 84.894531 L 92.171875 82.957031 C 91.664062 62.957031 91.753906 42.90625 91.664062 22.90625 C 90.417969 21.9375 89.359375 21.015625 88.160156 20.003906 C 83.042969 15.671875 74.886719 8.15625 69.726562 5.53125 C 61.382812 1.246094 51.429688 0 42.257812 1.980469 C 38.476562 2.8125 34.742188 4.148438 30.367188 5.761719 C 30.089844 12.214844 29.859375 18.804688 29.675781 25.210938 C 29.257812 38.160156 28.613281 50.925781 27.832031 63.832031 C 32.761719 63.140625 38.15625 62.726562 43.914062 62.957031 C 64.054688 63.785156 78.988281 69.363281 92.214844 84.894531 Z M 92.214844 84.894531 " fill-opacity="1" fill-rule="evenodd"/><path fill="#ffffff" d="M 94.472656 71.113281 C 94.566406 75.769531 94.660156 80.46875 94.75 85.125 C 109.636719 62.265625 133.097656 61.988281 160.425781 62.359375 C 160.195312 58.578125 159.875 54.613281 159.550781 50.695312 C 158.351562 36.6875 159.183594 22.03125 157.660156 8.617188 C 131.4375 3.363281 114.84375 1.890625 94.289062 22.582031 C 94.152344 22.769531 94.429688 67.566406 94.472656 71.113281 Z M 94.472656 71.113281 " fill-opacity="1" fill-rule="evenodd"/><path fill="#ffffff" d="M 94.519531 90.5625 C 93.738281 90.425781 92.90625 90.515625 92.078125 90.886719 L 91.894531 90.976562 C 91.0625 91.394531 90.464844 91.945312 90.140625 92.589844 C 89.957031 93.007812 89.867188 93.375 89.867188 93.789062 C 89.820312 94.160156 89.910156 94.574219 90.140625 94.941406 C 90.417969 95.585938 91.019531 96.1875 91.847656 96.601562 C 92.492188 96.921875 93.507812 97.0625 94.519531 97.0625 C 95.582031 97.109375 96.59375 96.96875 97.195312 96.691406 L 97.195312 96.648438 C 97.886719 96.324219 98.253906 95.910156 98.4375 95.449219 C 98.621094 94.851562 98.4375 94.113281 98.160156 93.421875 L 98.023438 93.191406 C 97.46875 92.039062 96.546875 91.253906 95.488281 90.839844 C 95.351562 90.792969 95.257812 90.746094 95.164062 90.703125 C 94.933594 90.703125 94.75 90.65625 94.519531 90.5625 Z M 94.519531 90.5625 " fill-opacity="1" fill-rule="evenodd"/></svg>