<svg xmlns="http://www.w3.org/2000/svg" xmlns:xlink="http://www.w3.org/1999/xlink" width="136" zoomAndPan="magnify" viewBox="0 0 102 115.499997" height="154" preserveAspectRatio="xMidYMid meet" version="1.0"><defs><clipPath id="95365a092d"><path d="M 0.21875 0 L 98 0 L 98 114.253906 L 0.21875 114.253906 Z M 0.21875 0 " clip-rule="nonzero"/></clipPath><clipPath id="5c9ec9c07a"><path d="M 2.71875 0 L 100 0 L 100 114.253906 L 2.71875 114.253906 Z M 2.71875 0 " clip-rule="nonzero"/></clipPath></defs><g clip-path="url(#95365a092d)"><path fill="#ffffff" d="M 1.773438 61.445312 C 2 61.21875 2.34375 60.875 2.769531 60.453125 C 4.070312 59.175781 4.453125 58.84375 5.023438 58.25 C 5.488281 57.773438 6.136719 57.0625 6.859375 56.121094 C 7.597656 55.113281 8.332031 54.109375 9.066406 53.105469 C 9.964844 51.820312 10.378906 50.660156 10.585938 49.886719 C 11.164062 47.742188 10.980469 45.777344 10.679688 44.144531 C 10.585938 43.652344 10.496094 43.140625 10.40625 42.554688 C 10.367188 42.316406 9.582031 36.5 10.222656 31.160156 C 10.679688 27.285156 12.160156 24.523438 13.585938 21.871094 C 19.054688 11.6875 28.472656 6.21875 31.234375 4.792969 C 37.378906 1.609375 44.125 0 51.3125 0 C 53.890625 0 56.433594 0.203125 58.882812 0.621094 C 64.898438 1.480469 73.789062 3.933594 82.054688 10.71875 L 82.691406 11.230469 C 85.855469 13.789062 91.746094 18.5625 94.597656 27.140625 C 94.78125 27.578125 98.695312 37.652344 96.609375 51.277344 C 96.390625 52.722656 95.96875 55.410156 94.5625 58.628906 C 94.214844 59.414062 93.226562 61.519531 91.507812 63.914062 C 90.28125 65.652344 88.582031 67.515625 87.339844 68.886719 L 85.035156 71.464844 C 84.175781 72.417969 83.828125 72.800781 83.277344 73.605469 C 81.210938 76.53125 80.207031 79.457031 79.710938 81.378906 C 79.328125 82.914062 79.015625 84.851562 78.761719 87.15625 C 78.578125 88.746094 78.503906 90.355469 78.523438 91.910156 C 78.558594 95.640625 78.707031 99.371094 78.851562 102.992188 C 78.945312 105.207031 79.035156 107.417969 79.089844 109.613281 C 79.128906 110.894531 78.652344 112.117188 77.753906 113.03125 C 76.859375 113.964844 75.652344 114.476562 74.371094 114.476562 L 34.121094 114.476562 C 31.527344 114.476562 29.40625 112.355469 29.40625 109.777344 C 29.367188 104.640625 29.347656 100.890625 29.421875 99.445312 C 29.449219 98.90625 29.429688 97.921875 28.835938 96.996094 C 28.046875 95.757812 26.640625 95.316406 25.964844 95.101562 C 25.699219 95.019531 24.519531 94.667969 23.046875 94.84375 C 22.386719 94.925781 21.734375 95.085938 20.902344 95.332031 C 20.363281 95.488281 19.789062 95.664062 19.0625 95.800781 C 18.882812 95.835938 18.386719 95.925781 17.847656 95.972656 C 16.5625 96.078125 15.542969 96.164062 14.613281 95.613281 C 13.449219 94.925781 13.089844 93.640625 13.039062 93.449219 C 12.910156 92.972656 12.941406 92.261719 13.054688 90.867188 C 13.109375 90.210938 13.164062 89.679688 13.203125 89.222656 C 13.347656 87.6875 13.457031 86.664062 12.617188 85.730469 C 12.214844 85.273438 11.8125 85.144531 11.484375 85.035156 C 11.417969 85.011719 11.34375 84.988281 11.253906 84.953125 C 11.253906 84.953125 10.960938 84.847656 10.714844 84.722656 C 10.671875 84.703125 9.667969 84.191406 9.605469 83.574219 C 9.597656 83.53125 9.605469 83.503906 9.609375 83.460938 C 9.628906 83.183594 9.769531 82.691406 10.59375 82.058594 C 11.382812 81.445312 11.59375 81.636719 11.878906 81.242188 C 12.230469 80.757812 12.222656 80.046875 12.011719 79.550781 C 12.011719 79.550781 11.605469 78.570312 10.058594 78.1875 C 10.042969 78.183594 10.03125 78.179688 10.019531 78.175781 C 9.636719 78.085938 9.179688 77.976562 8.558594 77.792969 C 7.003906 77.335938 6.839844 77.136719 6.78125 77.0625 C 6.671875 76.933594 6.527344 76.695312 6.492188 76.3125 C 6.417969 75.652344 7.277344 73.808594 7.863281 72.582031 L 8.027344 72.234375 C 8.792969 70.535156 8.117188 68.558594 6.453125 67.699219 C 4.84375 66.875 3.675781 66.21875 2.960938 65.722656 C 2.609375 65.480469 2.375 65.363281 2.136719 65.195312 C 1.164062 64.5 0.605469 64.097656 0.492188 63.539062 C 0.289062 62.519531 1.683594 61.507812 1.773438 61.445312 Z M 1.773438 61.445312 " fill-opacity="1" fill-rule="nonzero"/></g><path fill="#0e6bd2" d="M 51.746094 26.492188 C 56.351562 26.335938 60.746094 28.046875 64.136719 31.308594 C 67.519531 34.566406 69.394531 38.890625 69.417969 43.488281 C 69.445312 49.347656 66.523438 54.746094 61.5625 57.957031 C 61.285156 58.132812 61.0625 58.339844 60.910156 58.5625 C 60.773438 58.761719 60.65625 58.96875 60.554688 59.1875 C 60.265625 59.804688 60.121094 60.5 60.140625 61.214844 L 60.140625 69.980469 C 60.140625 71.53125 58.878906 72.796875 57.328125 72.796875 L 56.957031 72.796875 C 56.636719 74.988281 54.683594 76.644531 52.328125 76.644531 C 49.972656 76.644531 48.019531 74.988281 47.699219 72.796875 L 47.328125 72.796875 C 45.777344 72.796875 44.515625 71.535156 44.515625 69.980469 L 44.515625 61.183594 C 44.535156 60.492188 44.390625 59.804688 44.097656 59.183594 C 44 58.964844 43.878906 58.753906 43.742188 58.558594 C 43.585938 58.332031 43.367188 58.128906 43.09375 57.953125 C 38.175781 54.785156 35.238281 49.410156 35.238281 43.570312 C 35.238281 34.304688 42.488281 26.800781 51.746094 26.492188 Z M 50.164062 72.796875 C 50.457031 73.636719 51.324219 74.238281 52.328125 74.238281 C 53.332031 74.238281 54.199219 73.636719 54.492188 72.796875 Z M 57.738281 68.214844 L 46.921875 68.214844 L 46.921875 69.980469 C 46.921875 70.207031 47.105469 70.390625 47.328125 70.390625 L 57.328125 70.390625 C 57.554688 70.390625 57.738281 70.207031 57.738281 69.980469 Z M 48.980469 44.375 C 49.007812 43.824219 48.742188 43.3125 48.289062 43.03125 C 47.59375 42.609375 46.820312 43.015625 46.789062 43.03125 C 46.3125 43.292969 46.035156 43.785156 45.945312 44.53125 C 45.851562 45.289062 46.15625 45.996094 46.488281 46.28125 C 46.570312 46.351562 46.664062 46.414062 46.761719 46.464844 C 46.976562 46.574219 47.246094 46.632812 47.546875 46.632812 L 48.976562 46.632812 L 48.976562 44.425781 Z M 58.710938 44.53125 C 58.648438 44.023438 58.453125 43.355469 57.875 43.035156 C 57.835938 43.015625 57.484375 42.839844 57.0625 42.839844 C 56.808594 42.839844 56.574219 42.90625 56.367188 43.03125 C 55.910156 43.3125 55.644531 43.824219 55.675781 44.398438 L 55.675781 46.632812 L 57.109375 46.632812 C 57.414062 46.632812 57.679688 46.574219 57.894531 46.464844 C 57.992188 46.414062 58.085938 46.351562 58.167969 46.277344 C 58.5 45.996094 58.804688 45.289062 58.710938 44.53125 Z M 51.382812 49.035156 L 51.382812 61.785156 L 53.273438 61.785156 L 53.273438 49.035156 Z M 46.921875 61.214844 L 46.921875 61.785156 L 48.976562 61.785156 L 48.976562 49.035156 L 47.546875 49.035156 C 46.851562 49.035156 46.21875 48.890625 45.65625 48.597656 C 45.398438 48.464844 45.152344 48.300781 44.929688 48.113281 C 43.929688 47.261719 43.378906 45.707031 43.558594 44.242188 C 43.792969 42.308594 44.820312 41.371094 45.636719 40.921875 C 45.839844 40.808594 47.699219 39.855469 49.542969 40.980469 C 50.742188 41.714844 51.449219 43.054688 51.382812 44.457031 L 51.382812 46.632812 L 53.273438 46.632812 L 53.273438 44.476562 C 53.207031 43.054688 53.910156 41.714844 55.113281 40.980469 C 56.953125 39.855469 58.8125 40.808594 59.019531 40.925781 C 60.175781 41.554688 60.914062 42.734375 61.097656 44.238281 C 61.277344 45.707031 60.726562 47.261719 59.722656 48.113281 C 59.503906 48.296875 59.261719 48.460938 59 48.597656 C 58.4375 48.890625 57.804688 49.039062 57.109375 49.039062 L 55.675781 49.039062 L 55.675781 61.785156 L 57.738281 61.785156 L 57.738281 61.246094 C 57.707031 60.183594 57.929688 59.121094 58.375 58.167969 C 58.53125 57.832031 58.714844 57.507812 58.925781 57.210938 C 59.25 56.730469 59.6875 56.308594 60.265625 55.929688 C 64.515625 53.195312 67.039062 48.546875 67.011719 43.5 C 66.992188 39.554688 65.378906 35.84375 62.464844 33.042969 C 59.550781 30.234375 55.777344 28.753906 51.828125 28.894531 C 43.871094 29.160156 37.640625 35.609375 37.640625 43.570312 C 37.640625 48.585938 40.167969 53.207031 44.394531 55.929688 C 44.941406 56.28125 45.390625 56.707031 45.726562 57.195312 C 45.941406 57.511719 46.128906 57.839844 46.28125 58.167969 C 46.722656 59.121094 46.945312 60.179688 46.921875 61.214844 Z M 46.921875 64.191406 L 46.921875 65.808594 L 57.738281 65.808594 L 57.738281 64.191406 Z M 46.921875 64.191406 " fill-opacity="1" fill-rule="nonzero"/><path fill="#0e6bd2" d="M 53.699219 12.402344 L 53.699219 18.953125 C 53.699219 19.707031 53.085938 20.324219 52.328125 20.324219 L 52.324219 20.324219 C 51.570312 20.324219 50.953125 19.707031 50.953125 18.953125 L 50.953125 12.402344 C 50.953125 11.644531 51.570312 11.03125 52.324219 11.03125 L 52.328125 11.03125 C 53.085938 11.03125 53.699219 11.644531 53.699219 12.402344 Z M 53.699219 12.402344 " fill-opacity="1" fill-rule="nonzero"/><path fill="#0e6bd2" d="M 71.417969 17.980469 C 71.996094 18.46875 72.074219 19.332031 71.585938 19.910156 L 67.378906 24.925781 C 66.890625 25.507812 66.027344 25.582031 65.445312 25.097656 C 64.867188 24.609375 64.789062 23.746094 65.277344 23.164062 L 69.484375 18.148438 C 69.972656 17.570312 70.835938 17.492188 71.417969 17.980469 Z M 71.417969 17.980469 " fill-opacity="1" fill-rule="nonzero"/><path fill="#0e6bd2" d="M 81.574219 35.574219 C 81.707031 36.320312 81.210938 37.03125 80.464844 37.164062 L 74.015625 38.300781 C 73.269531 38.429688 72.558594 37.933594 72.425781 37.1875 C 72.292969 36.441406 72.792969 35.730469 73.539062 35.601562 L 79.988281 34.460938 C 80.734375 34.332031 81.445312 34.828125 81.574219 35.574219 Z M 81.574219 35.574219 " fill-opacity="1" fill-rule="nonzero"/><path fill="#0e6bd2" d="M 24.667969 34.460938 L 31.113281 35.601562 C 31.859375 35.730469 32.359375 36.441406 32.226562 37.1875 C 32.09375 37.933594 31.382812 38.429688 30.636719 38.300781 L 24.191406 37.164062 C 23.445312 37.03125 22.945312 36.320312 23.078125 35.574219 C 23.210938 34.828125 23.921875 34.332031 24.667969 34.460938 Z M 24.667969 34.460938 " fill-opacity="1" fill-rule="nonzero"/><path fill="#0e6bd2" d="M 35.167969 18.148438 L 39.375 23.164062 C 39.863281 23.746094 39.789062 24.609375 39.207031 25.097656 C 38.628906 25.582031 37.761719 25.507812 37.277344 24.929688 L 33.066406 19.910156 C 32.582031 19.332031 32.65625 18.46875 33.234375 17.980469 C 33.816406 17.492188 34.679688 17.570312 35.167969 18.148438 Z M 35.167969 18.148438 " fill-opacity="1" fill-rule="nonzero"/><g clip-path="url(#5c9ec9c07a)"><path fill="#ffffff" d="M 4.269531 61.445312 C 4.496094 61.21875 4.84375 60.875 5.269531 60.453125 C 6.566406 59.175781 6.949219 58.84375 7.523438 58.25 C 7.984375 57.773438 8.632812 57.0625 9.359375 56.121094 C 10.09375 55.113281 10.828125 54.109375 11.5625 53.105469 C 12.464844 51.820312 12.878906 50.660156 13.085938 49.886719 C 13.660156 47.742188 13.480469 45.777344 13.175781 44.144531 C 13.085938 43.652344 12.992188 43.140625 12.902344 42.554688 C 12.867188 42.316406 12.078125 36.5 12.71875 31.160156 C 13.175781 27.285156 14.65625 24.523438 16.085938 21.871094 C 21.550781 11.6875 30.96875 6.21875 33.730469 4.792969 C 39.875 1.609375 46.625 0 53.8125 0 C 56.390625 0 58.929688 0.203125 61.382812 0.621094 C 67.398438 1.480469 76.285156 3.933594 84.550781 10.71875 L 85.191406 11.230469 C 88.355469 13.789062 94.242188 18.5625 97.097656 27.140625 C 97.277344 27.578125 101.191406 37.652344 99.109375 51.277344 C 98.886719 52.722656 98.46875 55.410156 97.058594 58.628906 C 96.710938 59.414062 95.722656 61.519531 94.003906 63.914062 C 92.78125 65.652344 91.078125 67.515625 89.835938 68.886719 L 87.53125 71.464844 C 86.671875 72.417969 86.324219 72.800781 85.777344 73.605469 C 83.710938 76.53125 82.703125 79.457031 82.210938 81.378906 C 81.828125 82.914062 81.515625 84.851562 81.257812 87.15625 C 81.078125 88.746094 81.003906 90.355469 81.023438 91.910156 C 81.058594 95.640625 81.203125 99.371094 81.351562 102.992188 C 81.441406 105.207031 81.535156 107.417969 81.589844 109.613281 C 81.625 110.894531 81.148438 112.117188 80.253906 113.03125 C 79.359375 113.964844 78.152344 114.476562 76.871094 114.476562 L 36.621094 114.476562 C 34.023438 114.476562 31.902344 112.355469 31.902344 109.777344 C 31.867188 104.640625 31.847656 100.890625 31.921875 99.445312 C 31.949219 98.90625 31.929688 97.921875 31.335938 96.996094 C 30.542969 95.757812 29.140625 95.316406 28.460938 95.101562 C 28.199219 95.019531 27.019531 94.667969 25.546875 94.84375 C 24.882812 94.925781 24.230469 95.085938 23.398438 95.332031 C 22.863281 95.488281 22.285156 95.664062 21.5625 95.800781 C 21.378906 95.835938 20.882812 95.925781 20.34375 95.972656 C 19.0625 96.078125 18.042969 96.164062 17.109375 95.613281 C 15.945312 94.925781 15.585938 93.640625 15.535156 93.449219 C 15.410156 92.972656 15.4375 92.261719 15.554688 90.867188 C 15.609375 90.210938 15.664062 89.679688 15.699219 89.222656 C 15.847656 87.6875 15.957031 86.664062 15.113281 85.730469 C 14.710938 85.273438 14.308594 85.144531 13.980469 85.035156 C 13.914062 85.011719 13.839844 84.988281 13.75 84.953125 C 13.75 84.953125 13.457031 84.847656 13.214844 84.722656 C 13.167969 84.703125 12.167969 84.191406 12.101562 83.574219 C 12.097656 83.53125 12.101562 83.503906 12.105469 83.460938 C 12.128906 83.183594 12.269531 82.691406 13.089844 82.058594 C 13.882812 81.445312 14.089844 81.636719 14.378906 81.242188 C 14.726562 80.757812 14.71875 80.046875 14.511719 79.550781 C 14.511719 79.550781 14.101562 78.570312 12.558594 78.1875 C 12.542969 78.183594 12.527344 78.179688 12.519531 78.175781 C 12.132812 78.085938 11.675781 77.976562 11.054688 77.792969 C 9.5 77.335938 9.335938 77.136719 9.28125 77.0625 C 9.171875 76.933594 9.023438 76.695312 8.988281 76.3125 C 8.914062 75.652344 9.773438 73.808594 10.359375 72.582031 L 10.523438 72.234375 C 11.292969 70.535156 10.617188 68.558594 8.953125 67.699219 C 7.34375 66.875 6.171875 66.21875 5.460938 65.722656 C 5.105469 65.480469 4.871094 65.363281 4.636719 65.195312 C 3.664062 64.5 3.105469 64.097656 2.992188 63.539062 C 2.785156 62.519531 4.179688 61.507812 4.269531 61.445312 Z M 4.269531 61.445312 " fill-opacity="1" fill-rule="nonzero"/></g><path fill="#0e6bd2" d="M 54.246094 26.492188 C 58.847656 26.335938 63.246094 28.046875 66.632812 31.308594 C 70.019531 34.566406 71.894531 38.890625 71.914062 43.488281 C 71.941406 49.347656 69.019531 54.746094 64.058594 57.957031 C 63.78125 58.132812 63.5625 58.339844 63.40625 58.5625 C 63.273438 58.761719 63.152344 58.96875 63.054688 59.1875 C 62.761719 59.804688 62.621094 60.5 62.640625 61.214844 L 62.640625 69.980469 C 62.640625 71.53125 61.375 72.796875 59.824219 72.796875 L 59.457031 72.796875 C 59.132812 74.988281 57.179688 76.644531 54.828125 76.644531 C 52.472656 76.644531 50.519531 74.988281 50.195312 72.796875 L 49.828125 72.796875 C 48.277344 72.796875 47.011719 71.535156 47.011719 69.980469 L 47.011719 61.183594 C 47.03125 60.492188 46.886719 59.804688 46.597656 59.183594 C 46.496094 58.964844 46.375 58.753906 46.242188 58.558594 C 46.082031 58.332031 45.867188 58.128906 45.59375 57.953125 C 40.671875 54.785156 37.734375 49.410156 37.734375 43.570312 C 37.734375 34.304688 44.988281 26.800781 54.246094 26.492188 Z M 52.660156 72.796875 C 52.957031 73.636719 53.824219 74.238281 54.828125 74.238281 C 55.828125 74.238281 56.695312 73.636719 56.992188 72.796875 Z M 60.234375 68.214844 L 49.417969 68.214844 L 49.417969 69.980469 C 49.417969 70.207031 49.601562 70.390625 49.828125 70.390625 L 59.824219 70.390625 C 60.050781 70.390625 60.234375 70.207031 60.234375 69.980469 Z M 51.476562 44.375 C 51.507812 43.824219 51.242188 43.3125 50.789062 43.03125 C 50.089844 42.609375 49.316406 43.015625 49.285156 43.03125 C 48.8125 43.292969 48.535156 43.785156 48.441406 44.53125 C 48.351562 45.289062 48.652344 45.996094 48.988281 46.28125 C 49.070312 46.351562 49.160156 46.414062 49.261719 46.464844 C 49.472656 46.574219 49.746094 46.632812 50.042969 46.632812 L 51.476562 46.632812 Z M 61.210938 44.53125 C 61.148438 44.023438 60.949219 43.355469 60.371094 43.035156 C 60.332031 43.015625 59.984375 42.839844 59.5625 42.839844 C 59.304688 42.839844 59.070312 42.90625 58.863281 43.03125 C 58.410156 43.3125 58.144531 43.824219 58.175781 44.398438 L 58.175781 46.632812 L 59.605469 46.632812 C 59.914062 46.632812 60.175781 46.574219 60.390625 46.464844 C 60.488281 46.414062 60.582031 46.351562 60.667969 46.277344 C 61 45.996094 61.300781 45.289062 61.210938 44.53125 Z M 53.878906 49.035156 L 53.878906 61.785156 L 55.769531 61.785156 L 55.769531 49.035156 Z M 49.417969 61.214844 L 49.417969 61.785156 L 51.476562 61.785156 L 51.476562 49.035156 L 50.042969 49.035156 C 49.351562 49.035156 48.714844 48.890625 48.152344 48.597656 C 47.894531 48.464844 47.652344 48.300781 47.429688 48.113281 C 46.429688 47.261719 45.875 45.707031 46.054688 44.242188 C 46.292969 42.308594 47.316406 41.371094 48.132812 40.921875 C 48.339844 40.808594 50.199219 39.855469 52.042969 40.980469 C 53.242188 41.714844 53.945312 43.054688 53.878906 44.457031 L 53.878906 46.632812 L 55.769531 46.632812 L 55.773438 44.476562 C 55.707031 43.054688 56.410156 41.714844 57.609375 40.980469 C 59.449219 39.855469 61.3125 40.808594 61.515625 40.925781 C 62.675781 41.554688 63.414062 42.734375 63.59375 44.238281 C 63.773438 45.707031 63.222656 47.261719 62.222656 48.113281 C 62.003906 48.296875 61.761719 48.460938 61.5 48.597656 C 60.9375 48.890625 60.300781 49.039062 59.605469 49.039062 L 58.175781 49.039062 L 58.175781 61.785156 L 60.234375 61.785156 L 60.234375 61.246094 C 60.207031 60.183594 60.429688 59.121094 60.875 58.167969 C 61.027344 57.832031 61.214844 57.507812 61.421875 57.210938 C 61.746094 56.730469 62.183594 56.308594 62.761719 55.929688 C 67.015625 53.195312 69.535156 48.546875 69.511719 43.5 C 69.488281 39.554688 67.875 35.84375 64.964844 33.042969 C 62.046875 30.234375 58.273438 28.753906 54.324219 28.894531 C 46.371094 29.160156 40.140625 35.609375 40.140625 43.570312 C 40.140625 48.585938 42.664062 53.207031 46.890625 55.929688 C 47.441406 56.28125 47.886719 56.707031 48.222656 57.195312 C 48.4375 57.511719 48.625 57.839844 48.777344 58.167969 C 49.222656 59.121094 49.441406 60.179688 49.417969 61.214844 Z M 49.417969 64.191406 L 49.417969 65.808594 L 60.234375 65.808594 L 60.234375 64.191406 Z M 49.417969 64.191406 " fill-opacity="1" fill-rule="nonzero"/><path fill="#0e6bd2" d="M 56.195312 12.402344 L 56.195312 18.953125 C 56.195312 19.707031 55.582031 20.324219 54.824219 20.324219 C 54.066406 20.324219 53.453125 19.707031 53.453125 18.953125 L 53.453125 12.402344 C 53.453125 11.644531 54.066406 11.03125 54.824219 11.03125 C 55.582031 11.03125 56.195312 11.644531 56.195312 12.402344 Z M 56.195312 12.402344 " fill-opacity="1" fill-rule="nonzero"/><path fill="#0e6bd2" d="M 73.914062 17.980469 C 74.496094 18.46875 74.570312 19.332031 74.085938 19.910156 L 69.875 24.925781 C 69.390625 25.507812 68.523438 25.582031 67.945312 25.097656 C 67.363281 24.609375 67.289062 23.746094 67.773438 23.164062 L 71.984375 18.148438 C 72.472656 17.570312 73.335938 17.492188 73.914062 17.980469 Z M 73.914062 17.980469 " fill-opacity="1" fill-rule="nonzero"/><path fill="#0e6bd2" d="M 84.074219 35.574219 C 84.203125 36.320312 83.707031 37.03125 82.960938 37.164062 L 76.511719 38.300781 C 75.765625 38.429688 75.054688 37.933594 74.925781 37.1875 C 74.792969 36.441406 75.289062 35.730469 76.035156 35.601562 L 82.484375 34.460938 C 83.230469 34.332031 83.941406 34.828125 84.074219 35.574219 Z M 84.074219 35.574219 " fill-opacity="1" fill-rule="nonzero"/><path fill="#0e6bd2" d="M 27.164062 34.460938 L 33.613281 35.601562 C 34.359375 35.730469 34.855469 36.441406 34.726562 37.1875 C 34.59375 37.933594 33.882812 38.429688 33.136719 38.300781 L 26.6875 37.164062 C 25.941406 37.03125 25.445312 36.320312 25.574219 35.574219 C 25.707031 34.828125 26.417969 34.332031 27.164062 34.460938 Z M 27.164062 34.460938 " fill-opacity="1" fill-rule="nonzero"/><path fill="#0e6bd2" d="M 37.664062 18.148438 L 41.875 23.164062 C 42.363281 23.746094 42.285156 24.609375 41.707031 25.097656 C 41.125 25.582031 40.261719 25.507812 39.773438 24.929688 L 35.566406 19.910156 C 35.078125 19.332031 35.152344 18.46875 35.734375 17.980469 C 36.3125 17.492188 37.179688 17.570312 37.664062 18.148438 Z M 37.664062 18.148438 " fill-opacity="1" fill-rule="nonzero"/></svg>