<svg xmlns="http://www.w3.org/2000/svg" xmlns:xlink="http://www.w3.org/1999/xlink" width="245" zoomAndPan="magnify" viewBox="0 0 183.75 130.499996" height="174" preserveAspectRatio="xMidYMid meet" version="1.0"><path fill="#ffffff" d="M 93.179688 100.09375 L 112.609375 100.09375 L 112.609375 129.476562 L 93.179688 129.476562 Z M 93.179688 100.09375 " fill-opacity="1" fill-rule="nonzero"/><path fill="#ffffff" d="M 71.617188 88.046875 L 91.042969 88.046875 L 91.042969 129.472656 L 71.617188 129.472656 Z M 71.617188 88.046875 " fill-opacity="1" fill-rule="nonzero"/><path fill="#ffffff" d="M 50.058594 86.9375 C 50.0625 86.953125 50.070312 86.964844 50.070312 86.980469 L 50.070312 129.472656 L 69.488281 129.472656 L 69.488281 74.433594 L 50.058594 74.433594 Z M 50.058594 86.9375 " fill-opacity="1" fill-rule="nonzero"/><path fill="#ffffff" d="M 6.957031 103.019531 L 26.382812 103.019531 L 26.382812 129.476562 L 6.957031 129.476562 Z M 6.957031 103.019531 " fill-opacity="1" fill-rule="nonzero"/><path fill="#ffffff" d="M 28.511719 101.945312 L 28.515625 101.953125 L 28.515625 129.472656 L 47.929688 129.472656 L 47.929688 88.046875 L 28.511719 88.046875 Z M 28.511719 101.945312 " fill-opacity="1" fill-rule="nonzero"/><path fill="#ffffff" d="M 157.867188 44.113281 L 177.296875 44.113281 L 177.296875 129.476562 L 157.867188 129.476562 Z M 157.867188 44.113281 " fill-opacity="1" fill-rule="nonzero"/><path fill="#ffffff" d="M 136.289062 79.289062 L 136.289062 129.472656 L 155.714844 129.472656 L 155.714844 64.359375 L 136.289062 64.359375 Z M 136.289062 79.289062 " fill-opacity="1" fill-rule="nonzero"/><path fill="#ffffff" d="M 114.734375 80.367188 L 134.160156 80.367188 L 134.160156 129.472656 L 114.734375 129.472656 Z M 114.734375 80.367188 " fill-opacity="1" fill-rule="nonzero"/><path fill="#ffffff" d="M 160.074219 3.761719 L 164.945312 9.019531 C 164.949219 9.023438 164.945312 9.035156 164.953125 9.042969 C 164.960938 9.050781 164.972656 9.050781 164.976562 9.054688 C 165.066406 9.160156 165.050781 9.296875 165.09375 9.417969 C 165.136719 9.550781 165.222656 9.667969 165.214844 9.808594 C 165.207031 9.945312 165.105469 10.050781 165.042969 10.179688 C 164.988281 10.292969 164.988281 10.429688 164.886719 10.523438 C 164.878906 10.527344 164.867188 10.523438 164.859375 10.53125 C 164.851562 10.539062 164.855469 10.550781 164.847656 10.554688 L 103.402344 62.074219 C 103.027344 62.390625 102.476562 62.40625 102.078125 62.109375 L 66.527344 35.371094 C 65.089844 34.289062 63.058594 34.253906 61.582031 35.285156 L 3.472656 75.839844 C 2.542969 76.488281 1.921875 77.457031 1.722656 78.570312 C 1.523438 79.679688 1.769531 80.796875 2.414062 81.71875 C 3.707031 83.574219 6.371094 84.113281 8.328125 82.773438 L 63.277344 44.421875 C 63.652344 44.15625 64.160156 44.164062 64.527344 44.441406 L 100.34375 71.390625 C 101.929688 72.578125 104.097656 72.523438 105.613281 71.265625 L 170.96875 16.445312 C 171.070312 16.359375 171.199219 16.375 171.316406 16.335938 C 171.449219 16.289062 171.5625 16.207031 171.699219 16.214844 C 171.835938 16.21875 171.941406 16.308594 172.066406 16.367188 C 172.183594 16.417969 172.3125 16.414062 172.40625 16.507812 L 177.671875 21.773438 L 181.707031 -0.0820312 Z M 160.074219 3.761719 " fill-opacity="1" fill-rule="nonzero"/><path fill="#ffffff" d="M 92.710938 100.09375 L 112.140625 100.09375 L 112.140625 129.476562 L 92.710938 129.476562 Z M 92.710938 100.09375 " fill-opacity="1" fill-rule="nonzero"/><path fill="#ffffff" d="M 71.148438 88.046875 L 90.574219 88.046875 L 90.574219 129.472656 L 71.148438 129.472656 Z M 71.148438 88.046875 " fill-opacity="1" fill-rule="nonzero"/><path fill="#ffffff" d="M 49.589844 86.9375 C 49.59375 86.953125 49.601562 86.964844 49.601562 86.980469 L 49.601562 129.472656 L 69.019531 129.472656 L 69.019531 74.433594 L 49.589844 74.433594 Z M 49.589844 86.9375 " fill-opacity="1" fill-rule="nonzero"/><path fill="#ffffff" d="M 6.488281 103.019531 L 25.914062 103.019531 L 25.914062 129.476562 L 6.488281 129.476562 Z M 6.488281 103.019531 " fill-opacity="1" fill-rule="nonzero"/><path fill="#ffffff" d="M 28.042969 101.945312 L 28.046875 101.953125 L 28.046875 129.472656 L 47.460938 129.472656 L 47.460938 88.046875 L 28.042969 88.046875 Z M 28.042969 101.945312 " fill-opacity="1" fill-rule="nonzero"/><path fill="#ffffff" d="M 157.398438 44.113281 L 176.828125 44.113281 L 176.828125 129.476562 L 157.398438 129.476562 Z M 157.398438 44.113281 " fill-opacity="1" fill-rule="nonzero"/><path fill="#ffffff" d="M 135.820312 79.289062 L 135.824219 79.304688 L 135.824219 129.472656 L 155.246094 129.472656 L 155.246094 64.359375 L 135.820312 64.359375 Z M 135.820312 79.289062 " fill-opacity="1" fill-rule="nonzero"/><path fill="#ffffff" d="M 114.265625 80.367188 L 133.691406 80.367188 L 133.691406 129.472656 L 114.265625 129.472656 Z M 114.265625 80.367188 " fill-opacity="1" fill-rule="nonzero"/><path fill="#ffffff" d="M 159.605469 3.761719 L 164.476562 9.019531 C 164.480469 9.023438 164.480469 9.035156 164.484375 9.042969 C 164.492188 9.050781 164.503906 9.050781 164.507812 9.054688 C 164.597656 9.160156 164.582031 9.296875 164.625 9.417969 C 164.667969 9.550781 164.753906 9.667969 164.746094 9.808594 C 164.738281 9.945312 164.636719 10.050781 164.574219 10.179688 C 164.519531 10.292969 164.519531 10.429688 164.417969 10.523438 C 164.410156 10.527344 164.398438 10.523438 164.390625 10.53125 C 164.382812 10.539062 164.386719 10.550781 164.378906 10.554688 L 102.9375 62.074219 C 102.558594 62.390625 102.007812 62.40625 101.613281 62.109375 L 66.058594 35.371094 C 64.621094 34.289062 62.59375 34.253906 61.113281 35.285156 L 3.007812 75.839844 C 2.074219 76.488281 1.453125 77.457031 1.253906 78.570312 C 1.054688 79.679688 1.300781 80.796875 1.945312 81.71875 C 3.238281 83.574219 5.902344 84.113281 7.859375 82.773438 L 62.808594 44.421875 C 63.183594 44.15625 63.691406 44.164062 64.058594 44.441406 L 99.875 71.390625 C 101.460938 72.578125 103.628906 72.523438 105.144531 71.265625 L 170.503906 16.445312 C 170.601562 16.359375 170.734375 16.375 170.851562 16.335938 C 170.980469 16.289062 171.09375 16.207031 171.230469 16.214844 C 171.367188 16.21875 171.472656 16.308594 171.597656 16.367188 C 171.714844 16.417969 171.84375 16.414062 171.9375 16.507812 L 177.207031 21.773438 L 181.238281 -0.0820312 Z M 159.605469 3.761719 " fill-opacity="1" fill-rule="nonzero"/></svg>