<svg xmlns="http://www.w3.org/2000/svg" xmlns:xlink="http://www.w3.org/1999/xlink" width="185" zoomAndPan="magnify" viewBox="0 0 138.75 138.749998" height="185" preserveAspectRatio="xMidYMid meet" version="1.0"><defs><clipPath id="a3d07b9b82"><path d="M 0 0 L 137.75 0 L 137.75 137.75 L 0 137.75 Z M 0 0 " clip-rule="nonzero"/></clipPath><clipPath id="0064f57dde"><path d="M 0 0 L 137.75 0 L 137.75 137.75 L 0 137.75 Z M 0 0 " clip-rule="nonzero"/></clipPath></defs><path fill="#ffffff" d="M 12.925781 71.609375 L 36.066406 71.609375 C 37.316406 71.609375 38.152344 70.777344 38.152344 69.527344 L 38.152344 61.8125 C 38.152344 60.5625 37.316406 59.726562 36.066406 59.726562 C 34.816406 59.726562 33.980469 60.5625 33.980469 61.8125 L 33.980469 67.441406 L 15.011719 67.441406 L 15.011719 48.46875 L 36.066406 48.46875 C 37.316406 48.46875 38.152344 47.636719 38.152344 46.386719 C 38.152344 45.132812 37.316406 44.300781 36.066406 44.300781 L 12.925781 44.300781 C 11.675781 44.300781 10.839844 45.132812 10.839844 46.386719 L 10.839844 69.527344 C 10.839844 70.777344 11.675781 71.609375 12.925781 71.609375 Z M 12.925781 71.609375 " fill-opacity="1" fill-rule="nonzero"/><path fill="#ffffff" d="M 35.855469 112.054688 C 34.605469 112.054688 33.773438 112.886719 33.773438 114.140625 L 33.773438 118.726562 L 15.011719 118.726562 L 15.011719 99.753906 L 36.066406 99.753906 C 37.316406 99.753906 38.152344 98.921875 38.152344 97.667969 C 38.152344 96.417969 37.316406 95.585938 36.066406 95.585938 L 12.925781 95.585938 C 11.675781 95.585938 10.839844 96.417969 10.839844 97.667969 L 10.839844 120.808594 C 10.839844 122.0625 11.675781 122.894531 12.925781 122.894531 L 36.066406 122.894531 C 37.316406 122.894531 38.152344 122.0625 38.152344 120.808594 L 38.152344 114.140625 C 37.941406 113.097656 37.109375 112.054688 35.855469 112.054688 Z M 35.855469 112.054688 " fill-opacity="1" fill-rule="nonzero"/><path fill="#ffffff" d="M 88.390625 109.34375 C 87.140625 109.34375 86.308594 110.179688 86.308594 111.429688 L 86.308594 116.847656 L 67.335938 116.847656 L 67.335938 97.878906 L 88.390625 97.878906 C 89.644531 97.878906 90.476562 97.042969 90.476562 95.792969 C 90.476562 94.542969 89.644531 93.707031 88.390625 93.707031 L 65.253906 93.707031 C 64 93.707031 63.167969 94.542969 63.167969 95.792969 L 63.167969 118.933594 C 63.167969 120.183594 64 121.019531 65.253906 121.019531 L 88.390625 121.019531 C 89.644531 121.019531 90.476562 120.183594 90.476562 118.933594 L 90.476562 111.429688 C 90.476562 110.179688 89.644531 109.34375 88.390625 109.34375 Z M 88.390625 109.34375 " fill-opacity="1" fill-rule="nonzero"/><path fill="#ffffff" d="M 74.007812 103.296875 C 73.382812 102.257812 72.132812 102.046875 71.089844 102.671875 C 70.046875 103.296875 69.839844 104.550781 70.464844 105.589844 L 75.882812 113.929688 C 76.300781 114.347656 76.71875 114.765625 77.34375 114.765625 C 77.550781 114.765625 77.550781 114.765625 77.761719 114.765625 C 78.175781 114.765625 78.804688 114.554688 79.011719 114.347656 L 95.6875 100.589844 C 96.523438 99.960938 96.730469 98.503906 95.898438 97.667969 C 95.0625 96.835938 93.8125 96.628906 92.980469 97.460938 L 77.96875 109.550781 Z M 74.007812 103.296875 " fill-opacity="1" fill-rule="nonzero"/><path fill="#ffffff" d="M 21.890625 53.472656 C 21.265625 52.429688 20.011719 52.222656 18.972656 52.847656 C 17.929688 53.472656 17.71875 54.722656 18.34375 55.765625 L 23.765625 64.105469 C 24.183594 64.523438 24.601562 64.9375 25.226562 64.9375 C 25.433594 64.9375 25.433594 64.9375 25.640625 64.9375 C 26.058594 64.9375 26.683594 64.730469 26.894531 64.523438 L 43.570312 50.761719 C 44.40625 50.136719 44.613281 48.679688 43.78125 47.84375 C 42.945312 47.011719 41.695312 46.800781 40.859375 47.636719 L 25.851562 59.726562 Z M 21.890625 53.472656 " fill-opacity="1" fill-rule="nonzero"/><path fill="#ffffff" d="M 40.859375 98.921875 L 25.851562 111.011719 L 21.679688 104.757812 C 21.054688 103.714844 19.804688 103.507812 18.761719 104.132812 C 17.71875 104.757812 17.511719 106.007812 18.136719 107.050781 L 23.558594 115.390625 C 23.972656 115.808594 24.390625 116.222656 25.015625 116.222656 C 25.226562 116.222656 25.226562 116.222656 25.433594 116.222656 C 25.851562 116.222656 26.476562 116.015625 26.683594 115.808594 L 43.363281 102.046875 C 44.195312 101.421875 44.40625 99.960938 43.570312 99.128906 C 42.945312 98.296875 41.695312 98.085938 40.859375 98.921875 Z M 40.859375 98.921875 " fill-opacity="1" fill-rule="nonzero"/><path fill="#ffffff" d="M 52.742188 40.964844 C 52.742188 39.714844 51.910156 38.878906 50.660156 38.878906 C 49.40625 38.878906 48.574219 39.714844 48.574219 40.964844 L 48.574219 79.53125 L 12.925781 79.53125 C 11.675781 79.53125 10.839844 80.367188 10.839844 81.617188 C 10.839844 82.867188 11.675781 83.703125 12.925781 83.703125 L 48.78125 83.703125 L 48.78125 122.269531 C 48.78125 123.519531 49.617188 124.355469 50.867188 124.355469 C 52.117188 124.355469 52.953125 123.519531 52.953125 122.269531 L 52.953125 83.910156 L 88.808594 83.910156 C 90.058594 83.910156 90.894531 83.078125 90.894531 81.824219 C 90.894531 80.574219 90.058594 79.742188 88.808594 79.742188 L 52.742188 79.742188 Z M 52.742188 40.964844 " fill-opacity="1" fill-rule="nonzero"/><g clip-path="url(#a3d07b9b82)"><path fill="#ffffff" d="M 102.777344 5.734375 C 93.1875 5.734375 84.222656 9.695312 77.96875 15.949219 L 77.96875 14.699219 C 77.96875 13.445312 77.136719 12.613281 75.882812 12.613281 L 69.003906 12.613281 L 69.003906 10.945312 C 69.003906 5.109375 64.210938 0.3125 58.371094 0.3125 L 43.363281 0.3125 C 37.523438 0.3125 32.730469 5.109375 32.730469 10.945312 L 32.730469 12.402344 L 25.851562 12.402344 C 24.601562 12.402344 23.765625 13.238281 23.765625 14.488281 L 23.765625 19.492188 L 7.503906 19.492188 C 3.335938 19.492188 0 22.828125 0 26.996094 L 0 130.191406 C 0 134.359375 3.335938 137.695312 7.503906 137.695312 L 94.019531 137.695312 C 98.191406 137.695312 101.527344 134.359375 101.527344 130.191406 L 101.527344 75.988281 C 101.941406 75.988281 102.359375 75.988281 102.777344 75.988281 C 122.164062 75.988281 138.007812 60.144531 138.007812 40.757812 C 138.007812 21.367188 122.164062 5.734375 102.777344 5.734375 Z M 36.691406 10.945312 C 36.691406 7.402344 39.609375 4.480469 43.152344 4.480469 L 58.164062 4.480469 C 61.707031 4.480469 64.625 7.402344 64.625 10.945312 L 64.625 12.402344 L 36.691406 12.402344 Z M 73.800781 16.78125 L 73.800781 21.160156 C 72.339844 23.246094 71.089844 25.539062 70.046875 28.039062 L 27.726562 28.039062 C 27.726562 24.078125 27.726562 21.160156 27.726562 16.78125 C 42.738281 16.78125 50.242188 16.78125 73.800781 16.78125 Z M 97.355469 130.398438 C 97.355469 132.277344 95.898438 133.734375 94.019531 133.734375 L 7.503906 133.734375 C 5.628906 133.734375 4.167969 132.277344 4.167969 130.398438 L 4.167969 27.207031 C 4.167969 25.328125 5.628906 23.871094 7.503906 23.871094 L 23.558594 23.871094 L 23.558594 29.914062 C 23.558594 31.167969 24.390625 32 25.640625 32 L 68.796875 32 C 67.960938 34.917969 67.546875 37.835938 67.546875 40.964844 C 67.546875 58.476562 80.46875 73.070312 97.355469 75.78125 Z M 102.777344 72.027344 C 85.683594 72.027344 71.714844 58.058594 71.714844 40.964844 C 71.714844 23.871094 85.683594 9.902344 102.777344 9.902344 C 119.871094 9.902344 133.839844 23.871094 133.839844 40.964844 C 133.839844 58.058594 119.871094 72.027344 102.777344 72.027344 Z M 102.777344 72.027344 " fill-opacity="1" fill-rule="nonzero"/></g><path fill="#ffffff" d="M 102.570312 19.285156 C 103.820312 19.285156 104.652344 18.449219 104.652344 17.199219 L 104.652344 14.28125 C 104.652344 13.03125 103.820312 12.195312 102.570312 12.195312 C 101.316406 12.195312 100.484375 13.03125 100.484375 14.28125 L 100.484375 16.992188 C 100.484375 18.242188 101.316406 19.285156 102.570312 19.285156 Z M 102.570312 19.285156 " fill-opacity="1" fill-rule="nonzero"/><path fill="#ffffff" d="M 102.984375 62.855469 C 101.734375 62.855469 100.902344 63.6875 100.902344 64.9375 L 100.902344 67.648438 C 100.902344 68.898438 101.734375 69.734375 102.984375 69.734375 C 104.238281 69.734375 105.070312 68.898438 105.070312 67.648438 L 105.070312 64.9375 C 105.070312 63.6875 104.238281 62.855469 102.984375 62.855469 Z M 102.984375 62.855469 " fill-opacity="1" fill-rule="nonzero"/><path fill="#ffffff" d="M 129.460938 38.671875 L 126.75 38.671875 C 125.5 38.671875 124.667969 39.503906 124.667969 40.757812 C 124.667969 42.007812 125.5 42.839844 126.75 42.839844 L 129.460938 42.839844 C 130.710938 42.839844 131.546875 42.007812 131.546875 40.757812 C 131.546875 39.503906 130.710938 38.671875 129.460938 38.671875 Z M 129.460938 38.671875 " fill-opacity="1" fill-rule="nonzero"/><path fill="#ffffff" d="M 78.804688 39.296875 L 76.09375 39.296875 C 74.84375 39.296875 74.007812 40.132812 74.007812 41.382812 C 74.007812 42.632812 74.84375 43.464844 76.09375 43.464844 L 78.804688 43.464844 C 80.054688 43.464844 80.886719 42.632812 80.886719 41.382812 C 80.886719 40.132812 80.054688 39.296875 78.804688 39.296875 Z M 78.804688 39.296875 " fill-opacity="1" fill-rule="nonzero"/><path fill="#ffffff" d="M 120.914062 25.328125 L 122.789062 23.453125 C 123.625 22.621094 123.625 21.367188 122.789062 20.535156 C 121.957031 19.699219 120.707031 19.699219 119.871094 20.535156 L 117.996094 22.410156 C 117.160156 23.246094 117.160156 24.496094 117.996094 25.328125 C 118.828125 26.164062 120.082031 26.164062 120.914062 25.328125 Z M 120.914062 25.328125 " fill-opacity="1" fill-rule="nonzero"/><path fill="#ffffff" d="M 84.640625 56.601562 L 82.765625 58.683594 C 81.929688 59.519531 81.929688 60.769531 82.765625 61.605469 C 83.597656 62.4375 84.847656 62.4375 85.683594 61.605469 L 87.558594 59.726562 C 88.390625 58.894531 88.390625 57.644531 87.558594 56.808594 C 86.726562 55.976562 85.472656 55.765625 84.640625 56.601562 Z M 84.640625 56.601562 " fill-opacity="1" fill-rule="nonzero"/><path fill="#ffffff" d="M 121.332031 56.183594 C 120.496094 55.347656 119.246094 55.347656 118.414062 56.183594 C 117.578125 57.015625 117.578125 58.269531 118.414062 59.101562 L 120.289062 60.976562 C 121.121094 61.8125 122.375 61.8125 123.207031 60.976562 C 124.042969 60.144531 124.042969 58.894531 123.207031 58.058594 Z M 121.332031 56.183594 " fill-opacity="1" fill-rule="nonzero"/><path fill="#ffffff" d="M 84.222656 25.746094 C 85.058594 26.582031 86.308594 26.582031 87.140625 25.746094 C 87.976562 24.914062 87.976562 23.660156 87.140625 22.828125 L 85.265625 20.953125 C 84.429688 20.117188 83.179688 20.117188 82.347656 20.953125 C 81.511719 21.785156 81.511719 23.035156 82.347656 23.871094 Z M 84.222656 25.746094 " fill-opacity="1" fill-rule="nonzero"/><path fill="#ffffff" d="M 108.613281 43.675781 C 109.03125 42.839844 109.238281 42.007812 109.238281 40.964844 C 109.238281 38.046875 107.363281 35.753906 104.863281 34.917969 L 104.863281 23.246094 C 104.863281 21.992188 104.027344 21.160156 102.777344 21.160156 C 101.527344 21.160156 100.691406 21.992188 100.691406 23.246094 L 100.691406 34.917969 C 98.191406 35.753906 96.316406 38.253906 96.316406 40.964844 C 96.316406 44.507812 99.234375 47.425781 102.777344 47.425781 C 103.820312 47.425781 104.863281 47.21875 105.695312 46.59375 L 113.828125 54.722656 C 114.660156 55.558594 115.910156 55.558594 116.746094 54.722656 C 117.578125 53.890625 117.578125 52.640625 116.746094 51.804688 Z M 100.484375 40.964844 C 100.484375 39.714844 101.527344 38.671875 102.777344 38.671875 C 104.027344 38.671875 105.070312 39.714844 105.070312 40.964844 C 105.070312 42.214844 104.027344 43.257812 102.777344 43.257812 C 101.527344 43.257812 100.484375 42.214844 100.484375 40.964844 Z M 100.484375 40.964844 " fill-opacity="1" fill-rule="nonzero"/><path fill="#ffffff" d="M 12.925781 71.609375 L 36.066406 71.609375 C 37.316406 71.609375 38.152344 70.777344 38.152344 69.527344 L 38.152344 61.8125 C 38.152344 60.5625 37.316406 59.726562 36.066406 59.726562 C 34.816406 59.726562 33.980469 60.5625 33.980469 61.8125 L 33.980469 67.441406 L 15.011719 67.441406 L 15.011719 48.46875 L 36.066406 48.46875 C 37.316406 48.46875 38.152344 47.636719 38.152344 46.386719 C 38.152344 45.132812 37.316406 44.300781 36.066406 44.300781 L 12.925781 44.300781 C 11.675781 44.300781 10.839844 45.132812 10.839844 46.386719 L 10.839844 69.527344 C 10.839844 70.777344 11.675781 71.609375 12.925781 71.609375 Z M 12.925781 71.609375 " fill-opacity="1" fill-rule="nonzero"/><path fill="#ffffff" d="M 35.855469 112.054688 C 34.605469 112.054688 33.773438 112.886719 33.773438 114.140625 L 33.773438 118.726562 L 15.011719 118.726562 L 15.011719 99.753906 L 36.066406 99.753906 C 37.316406 99.753906 38.152344 98.921875 38.152344 97.667969 C 38.152344 96.417969 37.316406 95.585938 36.066406 95.585938 L 12.925781 95.585938 C 11.675781 95.585938 10.839844 96.417969 10.839844 97.667969 L 10.839844 120.808594 C 10.839844 122.0625 11.675781 122.894531 12.925781 122.894531 L 36.066406 122.894531 C 37.316406 122.894531 38.152344 122.0625 38.152344 120.808594 L 38.152344 114.140625 C 37.941406 113.097656 37.109375 112.054688 35.855469 112.054688 Z M 35.855469 112.054688 " fill-opacity="1" fill-rule="nonzero"/><path fill="#ffffff" d="M 88.390625 109.34375 C 87.140625 109.34375 86.308594 110.179688 86.308594 111.429688 L 86.308594 116.847656 L 67.335938 116.847656 L 67.335938 97.878906 L 88.390625 97.878906 C 89.644531 97.878906 90.476562 97.042969 90.476562 95.792969 C 90.476562 94.542969 89.644531 93.707031 88.390625 93.707031 L 65.253906 93.707031 C 64 93.707031 63.167969 94.542969 63.167969 95.792969 L 63.167969 118.933594 C 63.167969 120.183594 64 121.019531 65.253906 121.019531 L 88.390625 121.019531 C 89.644531 121.019531 90.476562 120.183594 90.476562 118.933594 L 90.476562 111.429688 C 90.476562 110.179688 89.644531 109.34375 88.390625 109.34375 Z M 88.390625 109.34375 " fill-opacity="1" fill-rule="nonzero"/><path fill="#ffffff" d="M 74.007812 103.296875 C 73.382812 102.257812 72.132812 102.046875 71.089844 102.671875 C 70.046875 103.296875 69.839844 104.550781 70.464844 105.589844 L 75.882812 113.929688 C 76.300781 114.347656 76.71875 114.765625 77.34375 114.765625 C 77.550781 114.765625 77.550781 114.765625 77.761719 114.765625 C 78.175781 114.765625 78.804688 114.554688 79.011719 114.347656 L 95.6875 100.589844 C 96.523438 99.960938 96.730469 98.503906 95.898438 97.667969 C 95.0625 96.835938 93.8125 96.628906 92.980469 97.460938 L 77.96875 109.550781 Z M 74.007812 103.296875 " fill-opacity="1" fill-rule="nonzero"/><path fill="#ffffff" d="M 21.890625 53.472656 C 21.265625 52.429688 20.011719 52.222656 18.972656 52.847656 C 17.929688 53.472656 17.71875 54.722656 18.34375 55.765625 L 23.765625 64.105469 C 24.183594 64.523438 24.601562 64.9375 25.226562 64.9375 C 25.433594 64.9375 25.433594 64.9375 25.640625 64.9375 C 26.058594 64.9375 26.683594 64.730469 26.894531 64.523438 L 43.570312 50.761719 C 44.40625 50.136719 44.613281 48.679688 43.78125 47.84375 C 42.945312 47.011719 41.695312 46.800781 40.859375 47.636719 L 25.851562 59.726562 Z M 21.890625 53.472656 " fill-opacity="1" fill-rule="nonzero"/><path fill="#ffffff" d="M 40.859375 98.921875 L 25.851562 111.011719 L 21.679688 104.757812 C 21.054688 103.714844 19.804688 103.507812 18.761719 104.132812 C 17.71875 104.757812 17.511719 106.007812 18.136719 107.050781 L 23.558594 115.390625 C 23.972656 115.808594 24.390625 116.222656 25.015625 116.222656 C 25.226562 116.222656 25.226562 116.222656 25.433594 116.222656 C 25.851562 116.222656 26.476562 116.015625 26.683594 115.808594 L 43.363281 102.046875 C 44.195312 101.421875 44.40625 99.960938 43.570312 99.128906 C 42.945312 98.296875 41.695312 98.085938 40.859375 98.921875 Z M 40.859375 98.921875 " fill-opacity="1" fill-rule="nonzero"/><path fill="#ffffff" d="M 52.742188 40.964844 C 52.742188 39.714844 51.910156 38.878906 50.660156 38.878906 C 49.40625 38.878906 48.574219 39.714844 48.574219 40.964844 L 48.574219 79.53125 L 12.925781 79.53125 C 11.675781 79.53125 10.839844 80.367188 10.839844 81.617188 C 10.839844 82.867188 11.675781 83.703125 12.925781 83.703125 L 48.78125 83.703125 L 48.78125 122.269531 C 48.78125 123.519531 49.617188 124.355469 50.867188 124.355469 C 52.117188 124.355469 52.953125 123.519531 52.953125 122.269531 L 52.953125 83.910156 L 88.808594 83.910156 C 90.058594 83.910156 90.894531 83.078125 90.894531 81.824219 C 90.894531 80.574219 90.058594 79.742188 88.808594 79.742188 L 52.742188 79.742188 Z M 52.742188 40.964844 " fill-opacity="1" fill-rule="nonzero"/><g clip-path="url(#0064f57dde)"><path fill="#ffffff" d="M 102.777344 5.734375 C 93.1875 5.734375 84.222656 9.695312 77.96875 15.949219 L 77.96875 14.699219 C 77.96875 13.445312 77.136719 12.613281 75.882812 12.613281 L 69.003906 12.613281 L 69.003906 10.945312 C 69.003906 5.109375 64.210938 0.3125 58.371094 0.3125 L 43.363281 0.3125 C 37.523438 0.3125 32.730469 5.109375 32.730469 10.945312 L 32.730469 12.402344 L 25.851562 12.402344 C 24.601562 12.402344 23.765625 13.238281 23.765625 14.488281 L 23.765625 19.492188 L 7.503906 19.492188 C 3.335938 19.492188 0 22.828125 0 26.996094 L 0 130.191406 C 0 134.359375 3.335938 137.695312 7.503906 137.695312 L 94.019531 137.695312 C 98.191406 137.695312 101.527344 134.359375 101.527344 130.191406 L 101.527344 75.988281 C 101.941406 75.988281 102.359375 75.988281 102.777344 75.988281 C 122.164062 75.988281 138.007812 60.144531 138.007812 40.757812 C 138.007812 21.367188 122.164062 5.734375 102.777344 5.734375 Z M 36.691406 10.945312 C 36.691406 7.402344 39.609375 4.480469 43.152344 4.480469 L 58.164062 4.480469 C 61.707031 4.480469 64.625 7.402344 64.625 10.945312 L 64.625 12.402344 L 36.691406 12.402344 Z M 73.800781 16.78125 L 73.800781 21.160156 C 72.339844 23.246094 71.089844 25.539062 70.046875 28.039062 L 27.726562 28.039062 C 27.726562 24.078125 27.726562 21.160156 27.726562 16.78125 C 42.738281 16.78125 50.242188 16.78125 73.800781 16.78125 Z M 97.355469 130.398438 C 97.355469 132.277344 95.898438 133.734375 94.019531 133.734375 L 7.503906 133.734375 C 5.628906 133.734375 4.167969 132.277344 4.167969 130.398438 L 4.167969 27.207031 C 4.167969 25.328125 5.628906 23.871094 7.503906 23.871094 L 23.558594 23.871094 L 23.558594 29.914062 C 23.558594 31.167969 24.390625 32 25.640625 32 L 68.796875 32 C 67.960938 34.917969 67.546875 37.835938 67.546875 40.964844 C 67.546875 58.476562 80.46875 73.070312 97.355469 75.78125 Z M 102.777344 72.027344 C 85.683594 72.027344 71.714844 58.058594 71.714844 40.964844 C 71.714844 23.871094 85.683594 9.902344 102.777344 9.902344 C 119.871094 9.902344 133.839844 23.871094 133.839844 40.964844 C 133.839844 58.058594 119.871094 72.027344 102.777344 72.027344 Z M 102.777344 72.027344 " fill-opacity="1" fill-rule="nonzero"/></g><path fill="#ffffff" d="M 102.570312 19.285156 C 103.820312 19.285156 104.652344 18.449219 104.652344 17.199219 L 104.652344 14.28125 C 104.652344 13.03125 103.820312 12.195312 102.570312 12.195312 C 101.316406 12.195312 100.484375 13.03125 100.484375 14.28125 L 100.484375 16.992188 C 100.484375 18.242188 101.316406 19.285156 102.570312 19.285156 Z M 102.570312 19.285156 " fill-opacity="1" fill-rule="nonzero"/><path fill="#ffffff" d="M 102.984375 62.855469 C 101.734375 62.855469 100.902344 63.6875 100.902344 64.9375 L 100.902344 67.648438 C 100.902344 68.898438 101.734375 69.734375 102.984375 69.734375 C 104.238281 69.734375 105.070312 68.898438 105.070312 67.648438 L 105.070312 64.9375 C 105.070312 63.6875 104.238281 62.855469 102.984375 62.855469 Z M 102.984375 62.855469 " fill-opacity="1" fill-rule="nonzero"/><path fill="#ffffff" d="M 129.460938 38.671875 L 126.75 38.671875 C 125.5 38.671875 124.667969 39.503906 124.667969 40.757812 C 124.667969 42.007812 125.5 42.839844 126.75 42.839844 L 129.460938 42.839844 C 130.710938 42.839844 131.546875 42.007812 131.546875 40.757812 C 131.546875 39.503906 130.710938 38.671875 129.460938 38.671875 Z M 129.460938 38.671875 " fill-opacity="1" fill-rule="nonzero"/><path fill="#ffffff" d="M 78.804688 39.296875 L 76.09375 39.296875 C 74.84375 39.296875 74.007812 40.132812 74.007812 41.382812 C 74.007812 42.632812 74.84375 43.464844 76.09375 43.464844 L 78.804688 43.464844 C 80.054688 43.464844 80.886719 42.632812 80.886719 41.382812 C 80.886719 40.132812 80.054688 39.296875 78.804688 39.296875 Z M 78.804688 39.296875 " fill-opacity="1" fill-rule="nonzero"/><path fill="#ffffff" d="M 120.914062 25.328125 L 122.789062 23.453125 C 123.625 22.621094 123.625 21.367188 122.789062 20.535156 C 121.957031 19.699219 120.707031 19.699219 119.871094 20.535156 L 117.996094 22.410156 C 117.160156 23.246094 117.160156 24.496094 117.996094 25.328125 C 118.828125 26.164062 120.082031 26.164062 120.914062 25.328125 Z M 120.914062 25.328125 " fill-opacity="1" fill-rule="nonzero"/><path fill="#ffffff" d="M 84.640625 56.601562 L 82.765625 58.683594 C 81.929688 59.519531 81.929688 60.769531 82.765625 61.605469 C 83.597656 62.4375 84.847656 62.4375 85.683594 61.605469 L 87.558594 59.726562 C 88.390625 58.894531 88.390625 57.644531 87.558594 56.808594 C 86.726562 55.976562 85.472656 55.765625 84.640625 56.601562 Z M 84.640625 56.601562 " fill-opacity="1" fill-rule="nonzero"/><path fill="#ffffff" d="M 121.332031 56.183594 C 120.496094 55.347656 119.246094 55.347656 118.414062 56.183594 C 117.578125 57.015625 117.578125 58.269531 118.414062 59.101562 L 120.289062 60.976562 C 121.121094 61.8125 122.375 61.8125 123.207031 60.976562 C 124.042969 60.144531 124.042969 58.894531 123.207031 58.058594 Z M 121.332031 56.183594 " fill-opacity="1" fill-rule="nonzero"/><path fill="#ffffff" d="M 84.222656 25.746094 C 85.058594 26.582031 86.308594 26.582031 87.140625 25.746094 C 87.976562 24.914062 87.976562 23.660156 87.140625 22.828125 L 85.265625 20.953125 C 84.429688 20.117188 83.179688 20.117188 82.347656 20.953125 C 81.511719 21.785156 81.511719 23.035156 82.347656 23.871094 Z M 84.222656 25.746094 " fill-opacity="1" fill-rule="nonzero"/><path fill="#ffffff" d="M 108.613281 43.675781 C 109.03125 42.839844 109.238281 42.007812 109.238281 40.964844 C 109.238281 38.046875 107.363281 35.753906 104.863281 34.917969 L 104.863281 23.246094 C 104.863281 21.992188 104.027344 21.160156 102.777344 21.160156 C 101.527344 21.160156 100.691406 21.992188 100.691406 23.246094 L 100.691406 34.917969 C 98.191406 35.753906 96.316406 38.253906 96.316406 40.964844 C 96.316406 44.507812 99.234375 47.425781 102.777344 47.425781 C 103.820312 47.425781 104.863281 47.21875 105.695312 46.59375 L 113.828125 54.722656 C 114.660156 55.558594 115.910156 55.558594 116.746094 54.722656 C 117.578125 53.890625 117.578125 52.640625 116.746094 51.804688 Z M 100.484375 40.964844 C 100.484375 39.714844 101.527344 38.671875 102.777344 38.671875 C 104.027344 38.671875 105.070312 39.714844 105.070312 40.964844 C 105.070312 42.214844 104.027344 43.257812 102.777344 43.257812 C 101.527344 43.257812 100.484375 42.214844 100.484375 40.964844 Z M 100.484375 40.964844 " fill-opacity="1" fill-rule="nonzero"/></svg>